<svg xmlns="http://www.w3.org/2000/svg" xmlns:xlink="http://www.w3.org/1999/xlink" width="331.449" height="340.712" viewBox="0 0 331.449 340.712">
  <defs>
    <filter id="Tracé_3673" x="0" y="0" width="331.449" height="340.712" filterUnits="userSpaceOnUse">
      <feOffset dy="3" input="SourceAlpha"/>
      <feGaussianBlur stdDeviation="3" result="blur"/>
      <feFlood flood-opacity="0.549"/>
      <feComposite operator="in" in2="blur"/>
      <feComposite in="SourceGraphic"/>
    </filter>
  </defs>
  <g id="Groupe_10652" data-name="Groupe 10652" transform="translate(9 6)">
    <g transform="matrix(1, 0, 0, 1, -9, -6)" filter="url(#Tracé_3673)">
      <path id="Tracé_3673-2" data-name="Tracé 3673" d="M212.1,569.314s-32.816-51.5,49.367-86.377c81.207-34.446,54.538-119.818-5.832-119.818A69.738,69.738,0,0,0,239.777,365a75.079,75.079,0,0,1-16.753,2.24c-22.736,0-23.951-17.047-14.133-39.649,9.777-22.492,0-57.574-24.638-72.789a54.463,54.463,0,0,0-22.581-7.409,150.024,150.024,0,0,0-15.243-.791c-50.077,0-76.615,26.475-107.423,28.935q-2.26.182-4.554.184c-10.8,0-22.283-3.159-35.576-11.578V569.314Z" transform="translate(10.12 -240.6)" fill="#a0ebff" fill-rule="evenodd"/>
    </g>
  </g>
</svg>
