<svg xmlns="http://www.w3.org/2000/svg" xmlns:xlink="http://www.w3.org/1999/xlink" width="516.351" height="357.884" viewBox="0 0 516.351 357.884">
  <defs>
    <filter id="Tracé_3672" x="0" y="0" width="516.351" height="357.884" filterUnits="userSpaceOnUse">
      <feOffset dy="3" input="SourceAlpha"/>
      <feGaussianBlur stdDeviation="3" result="blur"/>
      <feFlood flood-opacity="0.612"/>
      <feComposite operator="in" in2="blur"/>
      <feComposite in="SourceGraphic"/>
    </filter>
  </defs>
  <g id="Groupe_10644" data-name="Groupe 10644" transform="translate(507.351 6) rotate(90)">
    <g transform="matrix(0, -1, 1, 0, -6, 507.35)" filter="url(#Tracé_3672)">
      <path id="Tracé_3672-2" data-name="Tracé 3672" d="M536.78,0s35.573,79.52-53.518,133.361c-75.822,45.8-64.914,149.9-18.651,177.979-.221,1.754-.44,3.5-.609,5.258-8.158,82.228,40.833,84.055,64.011,100.859a65.372,65.372,0,0,1,10.3,9.639c4.065,23.282,13.9,45.61,28.657,58.565a48.112,48.112,0,0,0,24.471,11.47,114.972,114.972,0,0,0,16.518,1.219c54.312,0,83.087-40.909,116.5-44.695a43.614,43.614,0,0,1,4.892-.278c11.74,0,24.227,4.88,38.643,17.88V0Z" transform="translate(507.35 -422.11) rotate(90)" fill="#a0ebff" fill-rule="evenodd"/>
    </g>
  </g>
</svg>
