<svg xmlns="http://www.w3.org/2000/svg" width="122" height="122" viewBox="0 0 122 122">
  <path id="Tracé_3910" data-name="Tracé 3910" d="M360.229,400.987a61.462,61.462,0,0,0-61,61c0,12.766,4.656,25.525,12,36a60.375,60.375,0,0,0,28,22,4.931,4.931,0,0,0,1,0c.639,0,.6-.5,1-1,.258-.4,1-.729,1-1v-35a1.96,1.96,0,0,0-2-2h-16v-14h16a2.048,2.048,0,0,0,2-2v-3c0-16.8,15.849-32,34-32h8v15h-8c-5.471,0-10.39,1.043-14,4a16.732,16.732,0,0,0-6,13v3a2.14,2.14,0,0,0,2,2h7a2.148,2.148,0,0,0,2-2,2.048,2.048,0,0,0-2-2h-5v-1c0-10.08,8.668-14,16-14h10a1.953,1.953,0,0,0,2-2v-18a2.038,2.038,0,0,0-2-2h-10c-9.339,0-19.657,3.408-27,10a35.181,35.181,0,0,0-11,26h-16a2.044,2.044,0,0,0-2,2v18a2.048,2.048,0,0,0,2,2h16v31a58.318,58.318,0,0,1-35-53c0-31.853,25.5-58,57-58,31.37,0,57,26.418,57,58a56.834,56.834,0,0,1-57,57h0v-34h26c.93,0,2-1.792,2-3v-17a2.048,2.048,0,0,0-2-2h-11a1.96,1.96,0,0,0-2,2,2.038,2.038,0,0,0,2,2h9v14h-26a2.044,2.044,0,0,0-2,2v38a2.267,2.267,0,0,0,2,2h2c16.156,0,31.385-5.442,43-17a63.284,63.284,0,0,0,18-44c0-16.4-6.52-31.306-18-43A60.67,60.67,0,0,0,360.229,400.987Z" transform="translate(-299.229 -400.987)" fill="#657e93" fill-rule="evenodd"/>
</svg>
