<svg xmlns="http://www.w3.org/2000/svg" width="122" height="122" viewBox="0 0 122 122">
  <path id="Tracé_3911" data-name="Tracé 3911" d="M407.384,404.995a57.2,57.2,0,0,1,32.881,10.324,57.126,57.126,0,1,1-32.881-10.324Zm0-4a60.437,60.437,0,0,0-43,18c-11.481,11.694-18,26.735-18,43a60.7,60.7,0,0,0,18,43,60.361,60.361,0,0,0,86,0,60.705,60.705,0,0,0,18-43c0-16.265-6.519-31.306-18-43A60.206,60.206,0,0,0,407.384,400.995Z" transform="translate(-346.384 -400.995)" fill="#657e93" fill-rule="evenodd"/>
  <path id="Tracé_3912" data-name="Tracé 3912" d="M413.245,411.47a11.917,11.917,0,0,1,12,12v44c0,6.716-5.329,13-12,13h-44c-6.671,0-12-6.284-12-13v-44a11.917,11.917,0,0,1,12-12Zm-44-4a16.007,16.007,0,0,0-16,16v44a16.007,16.007,0,0,0,16,16h44a16,16,0,0,0,16-16v-44a16,16,0,0,0-16-16Z" transform="translate(-330.245 -384.47)" fill="#657e93" fill-rule="evenodd"/>
  <path id="Tracé_3913" data-name="Tracé 3913" d="M379.334,412.552a20.069,20.069,0,0,0-20,21c.4,10.35,7.988,18.594,18,19,.426.034,1.574,0,2,0a17.9,17.9,0,0,0,10-3c1.065-.666.807-2.187,0-3-.4-.406-.473,0-1,0a2.966,2.966,0,0,0-1,0,16.285,16.285,0,0,1-8,2c-.325,0-.663.023-1,0-8.812-.135-16.135-6.993-16-16,.381-8.669,7.435-16,16-16,.46,0,1.529-.034,2,0,7.882.406,14.327,7.212,15,15a16.051,16.051,0,0,1-2,9c-.4.666-.673,1.334,0,2,.336.339.518,1,1,1a2.345,2.345,0,0,0,2-1,21.079,21.079,0,0,0,2-11,20.306,20.306,0,0,0-19-19C379.031,412.541,379.637,412.552,379.334,412.552Z" transform="translate(-317.334 -371.552)" fill="#657e93" fill-rule="evenodd"/>
  <path id="Tracé_3914" data-name="Tracé 3914" d="M374.878,410.82a4.856,4.856,0,0,0-5,5,4.78,4.78,0,0,0,5,5,4.855,4.855,0,0,0,5-5A4.936,4.936,0,0,0,374.878,410.82Z" transform="translate(-291.878 -379.82)" fill="#657e93" fill-rule="evenodd"/>
</svg>
