<svg xmlns="http://www.w3.org/2000/svg" width="122" height="122" viewBox="0 0 122 122">
  <path id="Tracé_3915" data-name="Tracé 3915" d="M454.639,404.995a57,57,0,1,1-57,57A56.664,56.664,0,0,1,454.639,404.995Zm0-4a60.437,60.437,0,0,0-43,18c-11.48,11.694-18,26.735-18,43a60.705,60.705,0,0,0,18,43,60.361,60.361,0,0,0,86,0,60.705,60.705,0,0,0,18-43c0-16.265-6.519-31.306-18-43A60.225,60.225,0,0,0,454.639,400.995Z" transform="translate(-393.639 -400.995)" fill="#657e93" fill-rule="evenodd"/>
  <path id="Tracé_3916" data-name="Tracé 3916" d="M415.044,418.992v35h-9v-35Zm-11-4a2.036,2.036,0,0,0-2,2v39a1.954,1.954,0,0,0,2,2h13a1.96,1.96,0,0,0,2-2v-39a1.886,1.886,0,0,0-2-2Z" transform="translate(-375.044 -364.992)" fill="#657e93" fill-rule="evenodd"/>
  <path id="Tracé_3917" data-name="Tracé 3917" d="M410.872,412.194a6.223,6.223,0,0,1,6,6,6.128,6.128,0,0,1-6,6c-3.206,0-5-2.772-5-6C405.872,415.1,407.666,412.194,410.872,412.194Zm0-4c-5.337,0-9,4.627-9,10s3.663,10,9,10a10,10,0,0,0,0-20Z" transform="translate(-376.872 -385.194)" fill="#657e93" fill-rule="evenodd"/>
  <path id="Tracé_3918" data-name="Tracé 3918" d="M412.426,414.992a1.96,1.96,0,0,0-2,2v39a1.961,1.961,0,0,0,2,2h12a2.036,2.036,0,0,0,2-2v-14c0-4.571,1.056-10,6-10,3.475,0,5.462,3.648,6,7,.135,1.084,1.058,1,2,1,1.065,0,1.258-.928,1-2-.942-6.321-3.8-10-9-10-6.144,0-10,5.264-10,14v12h-9v-35h7v3c0,.677-.527.594,0,1a8.1,8.1,0,0,0,2,1c.4,0,.664-.8,1-1a16.351,16.351,0,0,1,11-4c10.954,0,16,9.857,16,19v16h-9v-6c0-1.072-.069-2-1-2a2.048,2.048,0,0,0-2,2v8a1.96,1.96,0,0,0,2,2h13a1.96,1.96,0,0,0,2-2v-18c0-13.308-8.116-23-20-23a22.509,22.509,0,0,0-11,3v-1a1.954,1.954,0,0,0-2-2Z" transform="translate(-355.426 -364.992)" fill="#657e93" fill-rule="evenodd"/>
</svg>
