<svg xmlns="http://www.w3.org/2000/svg" width="122" height="122" viewBox="0 0 122 122">
  <path id="Tracé_3919" data-name="Tracé 3919" d="M501.9,404.995a57,57,0,1,1-57,57A56.664,56.664,0,0,1,501.9,404.995Zm0-4a60.437,60.437,0,0,0-43,18c-11.48,11.694-18,26.735-18,43a60.705,60.705,0,0,0,18,43,60.361,60.361,0,0,0,86,0,60.752,60.752,0,0,0,18-43c0-16.265-6.531-31.306-18-43A60.225,60.225,0,0,0,501.9,400.995Z" transform="translate(-440.896 -400.995)" fill="#657e93" fill-rule="evenodd"/>
  <path id="Tracé_3920" data-name="Tracé 3920" d="M500.527,409.628c-10.012,0-19.193,8.056-20,18a45.868,45.868,0,0,1-7-2,41.842,41.842,0,0,1-18-12c-.392-.271-.462-.865-1-1-.078-.011-.91,0-1,0-.729,0-.765.4-1,1a18.547,18.547,0,0,0-2,8c0,3.894.87,8.178,3,11-.112-.023.112,0,0,0-.549,0-1.563-.44-2,0-.269.271.135.6,0,1v1a16.673,16.673,0,0,0,6,13c-.4.135-.865.865-1,1-.135.542-.258.6,0,1,1.6,5.373,5.787,10.386,11,12a27.636,27.636,0,0,1-15,4h-2c-.942,0-1.731,1.063-2,2a1.923,1.923,0,0,0,1,2,44.305,44.305,0,0,0,23,6,45.922,45.922,0,0,0,27-9c1.065-.666,1.8-2.187,1-3-.37-.361-1.5,0-2,0-.4,0-.641-.3-1,0a43.668,43.668,0,0,1-25,8,43.169,43.169,0,0,1-15-3,35.108,35.108,0,0,0,16-7c.538-.542,1.135-1.323,1-2-.135-.8-1.058-1-2-1a13.519,13.519,0,0,1-11-7c.931,0,2.07-.729,3-1,.931-.124,2-.063,2-1,.135-.948-.935-1.594-2-2-4.944-1.208-8.2-6.022-9-11h0c1.469.271,2.531,1,4,1,.942,0,1.731-1.052,2-2a2.032,2.032,0,0,0-1-2,14.342,14.342,0,0,1-7-12c0-1.072.6-1.781,1-3a45.381,45.381,0,0,0,18,11s6.6,1.865,9,2h1c.807,0,1.731-.2,2-1,.135-.135,0-.865,0-1h0c0-8.466,6.457-16,15-16a15.86,15.86,0,0,1,11,5c.4.418.529,0,1,0a9.846,9.846,0,0,0,1,0c2.007-.406,3.273-.334,5-1h0c-.93.937-1.666,2.323-3,3-.807.542-1.392.928-1,2a2.134,2.134,0,0,0,2,1,28.637,28.637,0,0,0,5-1h0a38.225,38.225,0,0,1-5,4,3.2,3.2,0,0,0-1,2h0v1h0c0,10.881-3.329,20.607-10,28a2.514,2.514,0,0,0,0,3c.381.384.518,0,1,0,.527,0,.585.35,1,0a48.74,48.74,0,0,0,12-31,34.068,34.068,0,0,0,9-9c.931-.677.8-2.605,0-3-.359-.361-.44,0-1,0a3.71,3.71,0,0,0-1,0,27.5,27.5,0,0,1-3,1c.942-1.343,1.327-3.386,2-5,.123-.666.527-1.47,0-2-.415-.429-.507,0-1,0-.3,0-.742-.147-1,0a24.6,24.6,0,0,1-9,3A18.57,18.57,0,0,0,500.527,409.628Z" transform="translate(-423.527 -378.628)" fill="#657e93" fill-rule="evenodd"/>
</svg>
