<svg xmlns="http://www.w3.org/2000/svg" width="122" height="122" viewBox="0 0 122 122">
  <path id="Tracé_3921" data-name="Tracé 3921" d="M549.169,404.941a56.748,56.748,0,0,1,57,57c0,31.717-25.63,58-57,58-31.5,0-57-26.283-57-58A56.748,56.748,0,0,1,549.169,404.941Zm0-4a60.67,60.67,0,0,0-43,18c-11.48,11.694-18,26.735-18,43a61.462,61.462,0,0,0,61,61,61,61,0,0,0,0-122Z" transform="translate(-488.169 -400.941)" fill="#657e93" fill-rule="evenodd"/>
  <path id="Tracé_3922" data-name="Tracé 3922" d="M537.842,408.471a323.469,323.469,0,0,0-37,2,7.2,7.2,0,0,0-6,6,189.949,189.949,0,0,0,0,55,6.91,6.91,0,0,0,6,6,356.378,356.378,0,0,0,38,2c5.348,0,10.663-.876,16-1,.93,0,1-.792,1-2a1.953,1.953,0,0,0-2-2c-5.449.26-10.529,1-16,1a294.259,294.259,0,0,1-36-2,3.666,3.666,0,0,1-3-3,203.459,203.459,0,0,1,0-54c.269-1.343,1.666-1.729,3-2a343.25,343.25,0,0,1,74,0c1.334.271,1.877.521,2,2a191.913,191.913,0,0,1,0,54c-.123,1.343-.666,2.865-2,3-4,.531-8,.729-12,1a2.139,2.139,0,0,0-2,2,2.07,2.07,0,0,0,2,2c.079,0-.078.011,0,0,4.014-.406,8-1.458,12-2,3.207-.406,5.462-1.907,6-5a194.805,194.805,0,0,0,0-55,7.046,7.046,0,0,0-6-6A342.707,342.707,0,0,0,537.842,408.471Z" transform="translate(-477.842 -382.471)" fill="#657e93" fill-rule="evenodd"/>
  <path id="Tracé_3923" data-name="Tracé 3923" d="M505.372,418.135l28,15-28,14Zm-2-5c-.314,0,.269-.124,0,0a2.9,2.9,0,0,0-1,2v35a2.44,2.44,0,0,0,1,2c.4.135.608,0,1,0,.269,0-.135.135,0,0l34-18c.673-.406,1-.334,1-1a2.273,2.273,0,0,0-1-2l-34-18A2.7,2.7,0,0,0,503.372,413.135Z" transform="translate(-456.372 -371.135)" fill="#657e93" fill-rule="evenodd"/>
</svg>
