<svg xmlns="http://www.w3.org/2000/svg" width="218.644" height="169.203" viewBox="0 0 218.644 169.203">
  <path id="Tracé_3934" data-name="Tracé 3934" d="M782.641,151.064c-.3,0-.6.009-.906.03-8.865.57-12.081,9.46-14.128,16.771-2.721,9.765-4.073,23.6-12.625,23.6-2.369,0-5.288-1.062-8.942-3.564-2.872-1.964-6.586-5.077-10.352-5.077a6.38,6.38,0,0,0-2.273.411c-12.754,4.822-4.483,21.232-3.007,29.629.9,5.038.747,13.882-5,13.882a8.311,8.311,0,0,1-3.035-.662c-10.226-4.06-12.554-17.822-24.585-17.822a17.48,17.48,0,0,0-1.75.091c-7.078.727-8.632,7.052-7.57,13.091,1.659,9.2,6.869,17.187,10.006,25.871a63.606,63.606,0,0,1,3.187,28.721c-.6,5.184-5.469,12.183-4.174,17.367,1.918,7.568,16.773,6.4,22.682,7.439,8.347,1.478,16.8,2.826,24.859,5.547,9.734,3.27,25.534,13.875,38.366,13.875a16.235,16.235,0,0,0,12.157-4.829c4.2-4.3,2.073-10.912-1.065-15.112-3.965-5.288-11.093-8.632-14.2-14.594-2.6-4.977.962-6.262,5.619-6.262a80.541,80.541,0,0,1,11.515,1.361A91.248,91.248,0,0,0,810.3,282.2c5.669,0,11.119-1.328,14.624-6.216,6.429-8.944-3.627-18.094-9.46-24-7.984-8.114-4.977-11.121,1.063-12.055a38.024,38.024,0,0,1,5.82-.379c3.882,0,7.962.357,10.925.562,2.946.2,6.734.514,10.681.514,9.083,0,19.013-1.683,21.489-10.392,3.6-12.6-14.18-18.014-23.331-18.61-3.292-.209-10.342-.649-11.974-4.252-2.465-5.5,7.256-9.747,10.575-12.131a33.959,33.959,0,0,0,13.481-20.971c1.3-7.285-2.724-13.764-9.333-16.849a15.862,15.862,0,0,0-6.732-1.6c-13.159,0-21.145,19.024-33.239,21.661a6.532,6.532,0,0,1-1.4.163c-5.486,0-5.162-8.552-6.531-13.072-2.1-6.815-6.575-13.509-14.31-13.509Z" transform="translate(-647.268 -151.064)" fill="#5ad199" fill-rule="evenodd"/>
  <path id="Tracé_3935" data-name="Tracé 3935" d="M815.9,191.071a2.463,2.463,0,0,0-1.348.718l-7.855,6.9c-2.462,2.153-5.391,4.718-8.709,7.622-1.659,1.452-3.4,2.981-5.21,4.561s-3.708,3.268-5.652,5c-1.944,1.711-3.941,3.5-5.987,5.314-.518.44-1.036.908-1.557,1.374-.492.466-1.01.934-1.528,1.4-1.036.934-2.075,1.892-3.111,2.852-2.1,1.918-4.2,3.862-6.325,5.807l-.8.725-.777.777q-.777.777-1.557,1.557-1.515,1.554-3.033,3.109c-4.017,4.2-7.931,8.452-11.715,12.573-3.81,4.1-7.492,8.01-11.043,11.613-3.527,3.577-7.389,7.361-11.563,11.017-2.1,1.814-4.25,3.629-6.505,5.341-2.255,1.735-4.587,3.42-6.973,4.977a84.869,84.869,0,0,1-7.413,4.328c-.623.337-1.243.675-1.892.96-.649.309-1.271.621-1.918.906-1.3.544-2.619,1.039-3.941,1.557l-1.944.777c-.337.128-.649.259-.958.388-.337.1-.675.235-.986.337-1.322.468-2.617.908-3.915,1.348-.62.235-1.269.468-1.918.675-.623.207-1.269.39-1.892.6-1.3.388-2.541.777-3.784,1.167-9.9,2.954-18.819,4.951-25.17,6.4-3.163.7-5.728,1.271-7.492,1.633-1.737.39-2.7.6-2.7.6-1.8.429-1.9,1.226-.507,1.226a5.1,5.1,0,0,0,.74-.059s.958-.207,2.721-.544c1.763-.364,4.328-.882,7.518-1.528,6.4-1.35,15.345-3.216,25.377-6.066,1.243-.364,2.515-.727,3.81-1.115.649-.183,1.3-.39,1.944-.57.649-.209,1.3-.442,1.944-.649,1.3-.44,2.619-.882,3.941-1.322.337-.1.673-.233,1.01-.337.311-.131.649-.259.986-.39.647-.233,1.322-.492,1.994-.751,1.324-.518,2.671-1.01,4.019-1.528.649-.311,1.322-.623,1.97-.934.673-.285,1.322-.623,1.97-.958,2.591-1.324,5.158-2.774,7.62-4.357s4.849-3.266,7.154-5c2.308-1.761,4.511-3.577,6.662-5.417,4.252-3.682,8.167-7.466,11.744-11.095,3.551-3.6,7.257-7.57,11.016-11.717,3.784-4.121,7.672-8.4,11.613-12.6,1.01-1.062,2-2.1,3.007-3.137.492-.518.984-1.036,1.5-1.528l.751-.777.777-.727,6.246-5.857c1.039-.986,2.049-1.944,3.085-2.878.492-.492,1.012-.96,1.5-1.426.518-.466,1.01-.932,1.528-1.4q3.034-2.76,5.911-5.365c15.4-13.947,27.062-24.5,27.062-24.5,1-.9,1.069-1.6.544-1.6Z" transform="translate(-647.268 -151.064)" fill="#439d8a" fill-rule="evenodd"/>
  <path id="Tracé_3936" data-name="Tracé 3936" d="M765.585,263.153c-1.01,0-2.049.026-3.111.052-.518,0-1.036.026-1.555.026a23.223,23.223,0,0,0-1.555.078c-1.012.076-2,.155-2.9.233-.518.052-1.062.1-1.607.155-.544.078-1.115.157-1.685.233-1.141.157-2.308.311-3.475.494-1.165.207-2.358.44-3.5.647-.57.131-1.141.233-1.685.337-.544.131-1.062.259-1.581.39-1.036.259-2.023.492-2.9.7-.853.259-1.633.492-2.28.675-1.271.388-2.049.62-2.049.62-.374.15-.122,1.171.292,1.171a.325.325,0,0,0,.046,0s.777-.181,2.073-.466c.649-.131,1.4-.311,2.282-.492.882-.157,1.84-.311,2.878-.494.518-.1,1.036-.181,1.581-.283.544-.078,1.115-.157,1.685-.235l3.446-.466c1.167-.128,2.334-.259,3.449-.364.57-.076,1.115-.128,1.659-.181s1.063-.1,1.581-.128c.908-.1,1.868-.183,2.878-.285l.725-.078c.259,0,.518-.026.777-.026.52-.052,1.012-.078,1.531-.1,1.036-.076,2.047-.155,3.059-.207s2-.078,2.9-.1c1.245-.067,2.386-.067,3.362-.067h0c.488,0,.934,0,1.33-.009.986,0,1.689,0,1.962-.015h0c.02.013.041.026.061.041l.233.076a1.9,1.9,0,0,0,.364.1c.207.052.388.1.544.128.311.052.518.078.673.1.311.052.337.052.337.052.442,0,.6-.986.183-1.167,0,0-.026,0-.311-.052-.157-.026-.364-.076-.649-.128a3.835,3.835,0,0,1-.466-.1c-.078-.026-.183-.052-.259-.078-.052-.024-.078-.05-.131-.05-.026-.026-.052-.026-.078-.052l-.207-.078-.1-.026c-.1-.026-.856-.1-2.075-.207s-2.878-.285-4.77-.285Q767.142,263.192,765.585,263.153Z" transform="translate(-660.047 -139.51)" fill="#439d8a" fill-rule="evenodd"/>
  <path id="Tracé_3937" data-name="Tracé 3937" d="M784.369,196.532a.432.432,0,0,0-.355.133s-.285.673-.725,1.761c-.44,1.167-1.062,2.671-1.763,4.485-1.348,3.577-3.007,8.01-4.328,11.484-.649,1.735-1.4,3.679-2.2,5.624-.829,1.944-1.711,3.862-2.567,5.547-.44.829-.856,1.633-1.243,2.334-.39.673-.753,1.3-1.036,1.814-.623,1.012-1.012,1.633-1.012,1.633-.148.274.429.758.786.758a.254.254,0,0,0,.2-.083s.44-.6,1.165-1.554c.337-.494.753-1.091,1.219-1.79.44-.675.934-1.452,1.452-2.256.984-1.685,2.02-3.577,2.954-5.521.934-1.97,1.79-3.941,2.436-5.7,1.348-3.5,2.721-8.062,3.836-11.717,1.115-3.682,1.944-6.455,1.944-6.455.054-.272-.4-.494-.76-.494Z" transform="translate(-653.047 -144.51)" fill="#439d8a" fill-rule="evenodd"/>
</svg>
