<svg xmlns="http://www.w3.org/2000/svg" xmlns:xlink="http://www.w3.org/1999/xlink" width="947" height="597.796" viewBox="0 0 947 597.796">
    <defs>
      <filter id="Tracé_3892" x="0" y="0" width="947" height="597.796" filterUnits="userSpaceOnUse">
        <feOffset dy="3" input="SourceAlpha"/>
        <feGaussianBlur stdDeviation="3" result="blur"/>
        <feFlood/>
        <feComposite operator="in" in2="blur"/>
        <feComposite in="SourceGraphic"/>
      </filter>
    </defs>
    <path id="Tracé_3675" data-name="Tracé 3675" d="M290.968,99.021c-4.484,0-8.29,1.148-11.126,4.015a10.769,10.769,0,0,1-7.417,3.212c-.1,0,.1,0,0,0H271.5c-6.338,0-11.126,4.541-11.126,10.44A11.242,11.242,0,0,0,271.5,127.93a12.893,12.893,0,0,0,9.271-4.015,15.052,15.052,0,0,0,10.2,4.015,17.405,17.405,0,0,0,6.49-1.606,10.241,10.241,0,0,0,6.49,2.409,11.042,11.042,0,0,0,8.344-4.015A5.555,5.555,0,0,0,316,126.324c3.1,0,5.563-1.923,5.563-4.818A5.715,5.715,0,0,0,316,115.885h0a3.105,3.105,0,0,1-2.781-1.606c-.984-1.57-2.9-2.4-4.636-3.212a9.162,9.162,0,0,1-3.709-4.015C302.415,101.993,297.276,99.021,290.968,99.021Z" transform="translate(0.812 12.981)" fill="#a0ebff" fill-rule="evenodd"/>
    <path id="Tracé_3677" data-name="Tracé 3677" d="M220.955,358.888a17.826,17.826,0,0,0-12.053,4.818,10.816,10.816,0,0,1-7.417,3.212c-.134,0,.134,0,0,0h0c-6.338,0-12.053,4.516-12.053,10.44,0,5.9,5.715,10.44,12.053,10.44,3.558,0,6.233-.858,8.344-3.212,2.778,2.436,6.99,3.212,11.126,3.212a12.563,12.563,0,0,0,5.563-.8,13,13,0,0,0,7.417,2.409c3.3,0,5.536-1.743,7.417-4.015a8.375,8.375,0,0,0,4.636,1.606,5.715,5.715,0,0,0,5.563-5.621c0-2.893-2.467-4.818-5.563-4.818h0a4.813,4.813,0,0,1-3.709-1.606c-.984-1.568-2-3.2-3.709-4.015a7.485,7.485,0,0,1-3.709-3.212A15.51,15.51,0,0,0,220.955,358.888Z" transform="translate(3.142 32.572)" fill="#a0ebff" fill-rule="evenodd"/>
    <path id="Tracé_3681" data-name="Tracé 3681" d="M314.878,143.8a2.812,2.812,0,1,0,0,5.621A2.812,2.812,0,1,0,314.878,143.8Z" transform="translate(-0.847 16.388)" fill="#053b5c" fill-rule="evenodd"/>
    <path id="Tracé_3682" data-name="Tracé 3682" d="M301.489,143.8a2.812,2.812,0,1,0,0,5.621A2.812,2.812,0,1,0,301.489,143.8Z" transform="translate(-0.438 16.388)" fill="#053b5c" fill-rule="evenodd"/>
    <path id="Tracé_3683" data-name="Tracé 3683" d="M329.284,143.8a2.812,2.812,0,1,0,0,5.621A2.812,2.812,0,1,0,329.284,143.8Z" transform="translate(-1.346 16.388)" fill="#053b5c" fill-rule="evenodd"/>
    <path id="Tracé_3684" data-name="Tracé 3684" d="M206.593,336.551a2.812,2.812,0,1,0,0,5.621A2.812,2.812,0,1,0,206.593,336.551Z" transform="translate(2.67 30.817)" fill="#053b5c" fill-rule="evenodd"/>
    <path id="Tracé_3686" data-name="Tracé 3686" d="M220,336.551a2.812,2.812,0,1,0,0,5.621A2.812,2.812,0,1,0,220,336.551Z" transform="translate(2.243 30.817)" fill="#053b5c" fill-rule="evenodd"/>
    <path id="Tracé_3689" data-name="Tracé 3689" d="M420.335,64.627a2.812,2.812,0,1,0,0,5.621A2.812,2.812,0,1,0,420.335,64.627Z" transform="translate(-4.318 10.434)" fill="#053b5c" fill-rule="evenodd"/>
    <path id="Tracé_3690" data-name="Tracé 3690" d="M405.946,64.627a2.812,2.812,0,1,0,0,5.621A2.812,2.812,0,1,0,405.946,64.627Z" transform="translate(-3.836 10.434)" fill="#053b5c" fill-rule="evenodd"/>
    <path id="Tracé_3691" data-name="Tracé 3691" d="M492.516,133.17,420.2,237.566l-91.787-54.607,52.847-73.077c12.991-17.938,35.234-28.909,58.41-28.909h20.4Z" transform="translate(-1.4 11.756)" fill="#3bda1f" fill-rule="evenodd"/>
    <path id="Tracé_3692" data-name="Tracé 3692" d="M439.668,80.973c-23.176,0-45.419,10.972-58.41,28.909l-52.847,73.077L420.2,237.566l72.317-104.4-32.45-52.2Z" transform="translate(-1.4 11.756)" fill="#a0ebff" fill-rule="evenodd"/>
    <path id="Tracé_3693" data-name="Tracé 3693" d="M363.643,131.164l-35.232,48.182L420.2,233.953l50.993-73.88c-.2-.164-.723.161-.927,0a30.631,30.631,0,0,0-19.47-7.227,23.759,23.759,0,0,0-4.636,0c-10.3,2.006-18.5,10.44-28.742,10.44a14.847,14.847,0,0,1-1.854,0c-6.8-.757-13.013-4.931-17.616-9.636-7.752-7.9-15.226-17.118-25.96-20.879A30.212,30.212,0,0,0,363.643,131.164Z" transform="translate(-1.4 15.368)" fill="#40b4e5" fill-rule="evenodd"/>
    <path id="Tracé_3695" data-name="Tracé 3695" d="M563.169,107.224a30.649,30.649,0,0,0-10.2,1.606c-6.569,2.436-11.539,6.7-16.689,11.243-4.615,4.079-10.672,8.833-16.689,8.833a12.518,12.518,0,0,1-2.781-.8c-9.925-2.518-11.6-16.162-21.324-19.273a12.855,12.855,0,0,0-3.709-.8c-5.947,0-11.051,4.146-14.834,8.833-.318.4-.609,1.2-.927,1.606.724,1.163,1.1,1.967,1.854,3.212l34.3,55.41c2.2-.08,4.32-.667,6.49-.8,18.464-1.088,37.162-2.409,55.629-2.409,6.768,0,12.721.244,19.47.8,9.577.786,19.975,2.032,29.669,2.409l33.377-61.031-34.3,18.47-4.636-8.03a59.072,59.072,0,0,1-6.49,2.409,28.028,28.028,0,0,1-7.417.8c-4.471,0-9.3-.9-12.98-3.212-7-4.411-10.442-12.724-17.616-16.864A19.666,19.666,0,0,0,563.169,107.224Z" transform="translate(-6.226 13.611)" fill="#75d9c3" fill-rule="evenodd"/>
    <path id="Tracé_3696" data-name="Tracé 3696" d="M661.486,261.013a14.251,14.251,0,0,0-3.709.8c-3.038.866-5.133,2.789-7.417,4.818a54.207,54.207,0,0,0-9.271,10.44c-2.953,4.545-5.512,9.547-11.126,10.44-.476.075-1.38.8-1.854.8-3.966,0-7.637-2.672-10.2-5.621-2.892-3.3-5.248-7.329-8.344-10.44-2.423-2.459-5.83-4.818-9.271-4.818a8.822,8.822,0,0,0-2.781.8c-2.722.948-3.913,3.4-5.563,5.621-.26.352-.667.451-.927.8l36.159,65.849c12.787-4.408,24.414-12.371,38.013-14.455a54.049,54.049,0,0,1,8.344-.8c7.31,0,14.915.8,22.251.8.6,0,1.257.016,1.854,0,11.341-.3,22.757-3.811,31.523-10.44a63.288,63.288,0,0,0-6.49-18.47l-13.907-26.5c-.462.27-1.363.56-1.854.8a23.807,23.807,0,0,1-11.126,2.409,21.975,21.975,0,0,1-7.417-.8c-5.237-1.759-10.059-5.352-14.834-8.03C669.9,262.952,665.658,261.013,661.486,261.013Z" transform="translate(-9.974 25.248)" fill="#ffd173" fill-rule="evenodd"/>
    <path id="Tracé_3697" data-name="Tracé 3697" d="M317.778,352.144l-31.523,52.2,10.2,16.864c11.6,18.776,31.584,30.606,54.7,32.122l95.5,6.424,4.636-101.183Z" transform="translate(-0.039 32.088)" fill="#a0ebff" fill-rule="evenodd"/>
    <path id="Tracé_3698" data-name="Tracé 3698" d="M430.89,368.591c-9.358,0-18.521,6.258-25.96,12.046-8.593,6.71-17.543,14.184-28.742,14.455-.2,0-.728,0-.927,0-12.6,0-22.6-9.1-34.3-13.652a46.028,46.028,0,0,0-16.689-3.212,53.842,53.842,0,0,0-27.814,8.03l-10.2,16.864,10.2,16.864c11.6,18.776,31.584,30.606,54.7,32.122l95.5,6.424,3.709-79.5c-3.876-4.708-8.584-8.339-14.834-9.637A24.159,24.159,0,0,0,430.89,368.591Z" transform="translate(-0.039 33.309)" fill="#75d9c3" fill-rule="evenodd"/>
    <path id="Tracé_3699" data-name="Tracé 3699" d="M650.333,278.957c-3.674,8.412-3.91,18.428-1.854,27.3,3.7-.65,6.5-2.535,10.2-3.212C659.168,294.527,655.859,285.774,650.333,278.957Z" transform="translate(-11.801 26.577)" fill="#449e8b" fill-rule="evenodd"/>
    <path id="Tracé_3701" data-name="Tracé 3701" d="M631.794,302.064a43.006,43.006,0,0,0-12.98,2.409,52.085,52.085,0,0,0,26.887,10.44c.493-3.49-.491-6.146,0-9.636C641.235,303.656,636.6,302.064,631.794,302.064Z" transform="translate(-10.878 28.365)" fill="#449e8b" fill-rule="evenodd"/>
    <path id="Tracé_3702" data-name="Tracé 3702" d="M668.067,287.334a45.312,45.312,0,0,0-17.616,20.879c3.47,1.352,6.728,1.86,10.2,3.212A34.974,34.974,0,0,0,668.067,287.334Z" transform="translate(-11.919 27.033)" fill="#449e8b" fill-rule="evenodd"/>
    <path id="Tracé_3703" data-name="Tracé 3703" d="M623.614,278.957h0a75.832,75.832,0,0,0,20.4,40.955c4.717-3.84,7.336-9.006,12.053-12.849A62.954,62.954,0,0,0,623.614,278.957Z" transform="translate(-11.042 26.577)" fill="#5ad199" fill-rule="evenodd"/>
    <path id="Tracé_3704" data-name="Tracé 3704" d="M662.909,274.609a73.668,73.668,0,0,0,20.4,40.152c4.688-3.842,7.365-8.23,12.053-12.046A63.057,63.057,0,0,0,662.909,274.609Z" transform="translate(-12.324 26.107)" fill="#5ad199" fill-rule="evenodd"/>
    <path id="Tracé_3705" data-name="Tracé 3705" d="M374.434,162.332a30.683,30.683,0,0,0-2.781,8.03,23.265,23.265,0,0,0-9.271-7.227h0a27.333,27.333,0,0,0,2.781,9.636,47.292,47.292,0,0,0-14.834-2.409c-1.322,0-2.389-.12-3.709,0a50.746,50.746,0,0,0,12.98,12.046,22.778,22.778,0,0,0-6.49,4.818,30.272,30.272,0,0,0,6.49.8,38.446,38.446,0,0,0,9.271-.8c1.072.432,1.71.451,2.781.8a61.89,61.89,0,0,0,2.781-8.03,23.126,23.126,0,0,1,2.781-.8c1.215.189,2.552.505,3.709.8.753,2.813.7,5.242,1.854,8.03,1.072-.352,2.637-.371,3.709-.8a31.2,31.2,0,0,0,8.344.8,39.432,39.432,0,0,0,7.417-.8,27.877,27.877,0,0,0-7.417-4.818,55.506,55.506,0,0,0,13.907-12.046c-1.312-.12-3.314,0-4.636,0a41.775,41.775,0,0,0-13.907,2.409,27.383,27.383,0,0,0,2.781-9.636h0c-3.878,1.7-7.652,4.007-10.2,7.227a30.594,30.594,0,0,0-2.781-8.03,24.576,24.576,0,0,0-2.781,5.621A24.478,24.478,0,0,0,374.434,162.332Z" transform="translate(-1.992 17.928)" fill="#ffd173" fill-rule="evenodd"/>
    <path id="Tracé_3706" data-name="Tracé 3706" d="M361.937,394.881a30.969,30.969,0,0,0-2.781,8.03,27.243,27.243,0,0,0-10.2-8.03h0a31.516,31.516,0,0,0,2.781,10.44,46.413,46.413,0,0,0-14.834-2.409c-1.332,0-2.382-.12-3.709,0A54.47,54.47,0,0,0,347.1,414.957a26.187,26.187,0,0,0-7.417,4.818,38.648,38.648,0,0,0,7.417.8,36.874,36.874,0,0,0,9.271-.8,27.418,27.418,0,0,0,2.781.8c1.188-2.84,1.1-5.135,1.854-8.03,1.188-.3,2.493-.614,3.709-.8,1.244.189,2.493.505,3.709.8a56.5,56.5,0,0,0,2.781,8.03,27.255,27.255,0,0,0,2.781-.8,36.874,36.874,0,0,0,9.271.8,29.651,29.651,0,0,0,6.49-.8,22.118,22.118,0,0,0-6.49-4.818,49.843,49.843,0,0,0,12.98-12.046c-1.32-.12-2.379,0-3.709,0a46.347,46.347,0,0,0-14.834,2.409,31.458,31.458,0,0,0,2.781-10.44h0a27.261,27.261,0,0,0-10.2,8.03,31.059,31.059,0,0,0-2.781-8.03,24.578,24.578,0,0,0-2.781,5.621A23.439,23.439,0,0,0,361.937,394.881Z" transform="translate(-1.549 35.125)" fill="#ffd173" fill-rule="evenodd"/>
    <path id="Tracé_3707" data-name="Tracé 3707" d="M401.19,391.167c-1.39,2.436-3.072,5.3-3.709,8.03a27.242,27.242,0,0,0-10.2-8.03h0c.377,3.463,2.117,7.247,3.709,10.44-4.763-1.607-9.777-3.212-14.834-3.212-1.332,0-3.309.685-4.636.8a53.982,53.982,0,0,0,13.907,12.046,26.841,26.841,0,0,0-7.417,4.818,38.552,38.552,0,0,0,7.417.8,36.856,36.856,0,0,0,9.271-.8c1.072.459,1.654.424,2.781.8a65.635,65.635,0,0,0,2.781-8.03c1.188-.3,2.464-1.417,3.709-1.606,1.244.189,1.6,1.308,2.781,1.606a61.79,61.79,0,0,0,2.781,8.03c1.1-.379,1.712-.344,2.781-.8a36.944,36.944,0,0,0,9.271.8,38.55,38.55,0,0,0,7.417-.8,26.8,26.8,0,0,0-7.417-4.818A53.543,53.543,0,0,0,435.494,399.2c-1.327-.118-3.3-.8-4.636-.8-5.057,0-10.069,1.606-14.834,3.212,1.621-3.193,3.361-6.976,3.709-10.44h0a27.474,27.474,0,0,0-10.2,8.03,30.974,30.974,0,0,0-2.781-8.03,23.441,23.441,0,0,0-2.781,5.621A23.443,23.443,0,0,0,401.19,391.167Z" transform="translate(-2.789 34.824)" fill="#449e8b" fill-rule="evenodd"/>
    <path id="Tracé_3709" data-name="Tracé 3709" d="M671.534,166.953V184.62h37.086c5.324,0,9.271-3.882,9.271-8.833,0-4.979-3.947-8.833-9.271-8.833Z" transform="translate(-12.604 18.125)" fill="#fff" fill-rule="evenodd"/>
    <path id="Tracé_3710" data-name="Tracé 3710" d="M671.534,166.953V184.62h37.086c5.324,0,9.271-3.882,9.271-8.833,0-4.979-3.947-8.833-9.271-8.833Z" transform="translate(-12.604 18.125)" fill="#595959" fill-rule="evenodd"/>
    <path id="Tracé_3711" data-name="Tracé 3711" d="M716.964,171.539c-1.65,2.652-4.787,4.015-8.344,4.015H671.534v8.833h37.086c5.324,0,9.271-3.882,9.271-8.833A6.528,6.528,0,0,0,716.964,171.539Z" transform="translate(-12.604 18.357)" fill="#eee" fill-rule="evenodd"/>
    <path id="Tracé_3712" data-name="Tracé 3712" d="M671.314,122.195c-2.834,4.247-5.563,14.9-5.563,28.106,0,13.232,2.729,24.662,5.563,28.91,2.865-4.247,4.636-15.678,4.636-28.91C675.95,137.1,674.18,126.442,671.314,122.195Z" transform="translate(-12.385 14.701)" fill="#595959" fill-rule="evenodd"/>
    <path id="Tracé_3713" data-name="Tracé 3713" d="M671.534,122.195v57.016c2.865-4.247,4.636-15.678,4.636-28.91C676.169,137.1,674.4,126.442,671.534,122.195Z" transform="translate(-12.604 14.701)" fill="#eee" fill-rule="evenodd"/>
    <path id="Tracé_3714" data-name="Tracé 3714" d="M668.765,175.127c-5.473,0-16.783,3.963-28.742,10.44-12.238,6.6-21.591,14.062-24.106,18.47.122,0,.8,0,.927,0,5.5,0,16.78-3.991,28.742-10.44,12.238-6.6,21.617-14.059,24.106-18.47C669.571,175.123,668.894,175.127,668.765,175.127Z" transform="translate(-10.763 18.784)" fill="#595959" fill-rule="evenodd"/>
    <path id="Tracé_3715" data-name="Tracé 3715" d="M668.765,175.127c-5.473,0-16.783,3.963-28.742,10.44-12.267,6.6-21.591,14.062-24.106,18.47l53.774-28.909C669.571,175.123,668.894,175.127,668.765,175.127Z" transform="translate(-10.763 18.784)" fill="#eee" fill-rule="evenodd"/>
    <path id="Tracé_3716" data-name="Tracé 3716" d="M671.531,175.127c-.129,0,.124,0,0,0,2.518,4.411,11.839,11.867,24.106,18.47,11.959,6.449,23.269,10.44,28.742,10.44.129,0-.122,0,0,0-2.488-4.408-11.865-11.869-24.106-18.47C688.316,179.091,677.03,175.127,671.531,175.127Z" transform="translate(-12.602 18.784)" fill="#595959" fill-rule="evenodd"/>
    <path id="Tracé_3717" data-name="Tracé 3717" d="M671.534,175.126c2.518,4.411,11.839,11.867,24.106,18.47,11.959,6.449,23.269,10.44,28.741,10.44.129,0-.122,0,0,0Z" transform="translate(-12.604 18.786)" fill="#eee" fill-rule="evenodd"/>
    <path id="Tracé_3718" data-name="Tracé 3718" d="M671.162,166.953c-5.3,0-10.2,3.855-10.2,8.833,0,4.951,4.9,8.833,10.2,8.833,5.324,0,9.271-3.882,9.271-8.833C680.433,170.808,676.486,166.953,671.162,166.953Z" transform="translate(-12.233 18.125)" fill="#595959" fill-rule="evenodd"/>
    <path id="Tracé_3719" data-name="Tracé 3719" d="M651.382,241.543V343.53c2.632-.243,5.742-.694,8.344-.8V241.543Z" transform="translate(-11.923 23.839)" fill="#595959" fill-rule="evenodd"/>
    <path id="Tracé_3720" data-name="Tracé 3720" d="M638.946,235.723v13.652h28.742c4.078,0,6.49-3.412,6.49-7.227s-2.412-6.424-6.49-6.424Z" transform="translate(-11.54 23.235)" fill="#fff" fill-rule="evenodd"/>
    <path id="Tracé_3721" data-name="Tracé 3721" d="M638.946,235.723v13.652h28.742c4.078,0,6.49-3.412,6.49-7.227s-2.412-6.424-6.49-6.424Z" transform="translate(-11.54 23.235)" fill="#595959" fill-rule="evenodd"/>
    <path id="Tracé_3722" data-name="Tracé 3722" d="M673.25,238.633a5.99,5.99,0,0,1-5.563,3.212H638.946v7.227h28.742c4.078,0,6.49-3.412,6.49-7.227A5.618,5.618,0,0,0,673.25,238.633Z" transform="translate(-11.54 23.537)" fill="#eee" fill-rule="evenodd"/>
    <path id="Tracé_3723" data-name="Tracé 3723" d="M638.823,200.44c-2.2,3.247-3.709,12.312-3.709,22.485s1.509,18.41,3.709,21.682c2.2-3.272,3.709-11.511,3.709-21.682S641.022,203.688,638.823,200.44Z" transform="translate(-11.417 20.775)" fill="#595959" fill-rule="evenodd"/>
    <path id="Tracé_3724" data-name="Tracé 3724" d="M638.946,200.44v44.167c2.2-3.272,3.709-11.511,3.709-21.682S641.145,203.688,638.946,200.44Z" transform="translate(-11.54 20.775)" fill="#eee" fill-rule="evenodd"/>
    <path id="Tracé_3725" data-name="Tracé 3725" d="M636.645,241.545c-4.233,0-12.131,3.072-21.324,8.03-9.4,5.085-16.633,11.044-18.543,14.455.087,0-.09,0,0,0,4.216,0,13.046-3.052,22.252-8.03,9.431-5.085,16.635-11.074,18.543-14.455C637.468,241.54,636.754,241.545,636.645,241.545Z" transform="translate(-10.166 23.837)" fill="#595959" fill-rule="evenodd"/>
    <path id="Tracé_3726" data-name="Tracé 3726" d="M636.647,241.545c-4.233,0-12.131,3.072-21.324,8.03-9.4,5.085-16.633,11.044-18.543,14.455l40.794-22.485C637.47,241.54,636.756,241.545,636.647,241.545Z" transform="translate(-10.168 23.837)" fill="#eee" fill-rule="evenodd"/>
    <path id="Tracé_3727" data-name="Tracé 3727" d="M638.943,241.545c-.109,0,.1,0,0,0,1.91,3.381,9.112,9.369,18.543,14.455,9.2,4.979,18.038,8.03,22.251,8.03.092,0-.087,0,0,0-1.91-3.411-9.112-9.369-18.543-14.455C652.031,244.617,643.179,241.545,638.943,241.545Z" transform="translate(-11.537 23.837)" fill="#595959" fill-rule="evenodd"/>
    <path id="Tracé_3728" data-name="Tracé 3728" d="M638.946,241.543c1.91,3.381,9.112,9.369,18.543,14.455,9.2,4.979,18.038,8.03,22.251,8.03.092,0-.087,0,0,0Z" transform="translate(-11.54 23.839)" fill="#eee" fill-rule="evenodd"/>
    <path id="Tracé_3729" data-name="Tracé 3729" d="M638.694,235.723c-4.078,0-7.417,2.609-7.417,6.424a7.42,7.42,0,0,0,14.834,0C646.111,238.332,642.774,235.723,638.694,235.723Z" transform="translate(-11.288 23.235)" fill="#595959" fill-rule="evenodd"/>
    <path id="Tracé_3730" data-name="Tracé 3730" d="M377.856,129.692c-2.114,2.111-2.495,2.735-4.636,4.818,2.865,17.856.283,36.921-6.49,53.8,6.945-.759,14.321-1.254,21.324-1.606a103.045,103.045,0,0,1-5.563-52.2C380.351,132.426,379.968,131.8,377.856,129.692Z" transform="translate(-2.633 15.234)" fill="#ffab40" fill-rule="evenodd"/>
    <path id="Tracé_3731" data-name="Tracé 3731" d="M375.082,66.727a14.273,14.273,0,0,0-7.417,2.409,5.74,5.74,0,0,0-.927,0,10.119,10.119,0,0,0-8.344,4.015c-2.114,2.949-2.779,6.553-.927,9.636-3.993.784-7.654,1.787-10.2,4.818-2.547,3-3.617,7.545-.927,10.44A13.163,13.163,0,0,0,338,107.682a14.047,14.047,0,0,0,3.709,12.849c-.051,0,.051,0,0,0-2.185,0-3.48,3.531-3.709,5.621a11.763,11.763,0,0,0,4.636,10.44A13.6,13.6,0,0,0,350.976,139c1.222,0,1.61-.471,2.781-.8h0c-.693,1.461-.057,4.3.927,5.621.914,1.27,2.046,2.409,3.709,2.409.075,0,.854,0,.927,0a10.469,10.469,0,0,0,5.563,1.606,15.982,15.982,0,0,0,9.271-3.212,10.821,10.821,0,0,0,5.563,1.606c3.794,0,7.817-1.118,10.2-4.015a13.408,13.408,0,0,0,4.636.8A13.468,13.468,0,0,0,406.6,133.38c2.865-1.543,4.461-4.945,4.636-8.03.2-3.111-1.972-6.19-4.636-8.03a10.669,10.669,0,0,0,1.854-9.636c-1.072-3.354-3.047-6.678-6.49-8.03,2-6.358-.822-13.6-7.417-16.061,1.244-2.895-.351-6.7-2.781-8.833-1.93-1.718-4.033-3.212-6.49-3.212-.639,0-1.23-.268-1.854,0a9.77,9.77,0,0,0-6.49-4.818A9.183,9.183,0,0,0,375.082,66.727Z" transform="translate(-1.713 10.743)" fill="#5ad199" fill-rule="evenodd"/>
    <path id="Tracé_3732" data-name="Tracé 3732" d="M375.74,66.725c-.357,0-.558-.027-.927,0a10.067,10.067,0,0,1,3.709,9.636,4.988,4.988,0,0,1,1.854,0,5.258,5.258,0,0,1,2.781.8,4.383,4.383,0,0,1,1.854,4.015A7.443,7.443,0,0,0,378.522,86a5.755,5.755,0,0,1,3.709-1.606c.272,0,.662-.03.927,0a5.067,5.067,0,0,1,3.709,2.409,10.06,10.06,0,0,0-5.563,5.621,10.3,10.3,0,0,1,4.636-1.606,8.971,8.971,0,0,1,5.563,2.409c-4.109.489-7.531,4.964-7.417,8.833a9.78,9.78,0,0,0-4.636-1.606,15.2,15.2,0,0,0-3.709.8,10.8,10.8,0,0,0-6.49,4.818,6.883,6.883,0,0,1,3.709-1.606c.4,0,.495.746.927.8a5.12,5.12,0,0,1,3.709,2.409h0c-3.23,0-7.307,1.966-8.344,4.818a12.091,12.091,0,0,1,4.636-.8,7.54,7.54,0,0,1,5.563,2.409c1.361-1.6,4.291-1.5,6.49-1.606.129-.007.8-.8.927-.8a8.452,8.452,0,0,1,5.563,2.409c-4.109.3-8.23,3.871-10.2,7.227a9.862,9.862,0,0,1,3.709-.8,10.15,10.15,0,0,1,8.344,4.015c-.479-.114-.434,0-.927,0a11.913,11.913,0,0,0-8.344,4.015,13.443,13.443,0,0,0-8.344-4.015c-.148,0-.779,0-.927,0-2.945,0-5.215,1.383-7.417,3.212a4.389,4.389,0,0,0-3.709-1.606c-.416,0-1.444-.059-1.854,0-1.823.27-3.015,1.489-4.636,2.409a3.425,3.425,0,0,1,.927,0c3.067,0,6.552,2.035,7.417,4.818,1.077-.7,3-.8,4.636-.8a8.391,8.391,0,0,1,1.854,0,7.322,7.322,0,0,1,4.636,3.212c-.151-.007.151,0,0,0-4.036,0-9.063,2.44-11.126,5.621,1.621-1.318,5.106-1.606,7.417-1.606.2,0-.19,0,0,0a10.5,10.5,0,0,1,6.49,2.409,13.406,13.406,0,0,1,11.126-5.621c.236,0,.687-.014.927,0a14.739,14.739,0,0,0-8.344,9.636,12.167,12.167,0,0,0,6.49-4.015,13.407,13.407,0,0,0,4.636.8,13.468,13.468,0,0,0,12.053-9.636c2.865-1.543,4.461-4.945,4.636-8.03.2-3.111-1.972-6.19-4.636-8.03a10.669,10.669,0,0,0,1.854-9.636c-1.072-3.354-3.047-6.678-6.49-8.03,2-6.385-.822-13.6-7.417-16.061,1.244-2.895-.351-6.7-2.781-8.833-1.93-1.718-4.033-3.212-6.49-3.212-.639,0-1.23-.268-1.854,0a9.77,9.77,0,0,0-6.49-4.818A9.355,9.355,0,0,0,375.74,66.725Z" transform="translate(-2.372 10.746)" fill="#449e8b" fill-rule="evenodd"/>
    <path id="Tracé_3733" data-name="Tracé 3733" d="M438.406,147.595c-1.361,1.327-1.423,1.86-2.781,3.212a66.071,66.071,0,0,1-3.709,34.531c4.457-.489,8.523-1.388,12.98-1.606-3.993-10.55-4.575-21.859-2.781-32.925C440.754,149.455,439.765,148.922,438.406,147.595Z" transform="translate(-4.773 16.604)" fill="#ffab40" fill-rule="evenodd"/>
    <path id="Tracé_3734" data-name="Tracé 3734" d="M436.836,107.078a8.872,8.872,0,0,0-4.636,1.606c-.25-.027-.674,0-.927,0a6.7,6.7,0,0,0-5.563,2.409,5.879,5.879,0,0,0,0,6.424c-2.576.486-4.84,1.292-6.49,3.212a4.726,4.726,0,0,0,0,6.424c-2.865,1-5.824,3.611-6.49,6.424-.666,2.786.638,5.974,2.781,8.03-.034,0,.034,0,0,0-1.407,0-2.64,1.865-2.781,3.212-.289,2.488,1.653,5.63,3.709,7.227a6.793,6.793,0,0,0,4.636,1.606,13.056,13.056,0,0,0,2.781-.8h0c-.435.945-.637,3.174,0,4.015a3.871,3.871,0,0,0,2.781,1.606c.036,0-.036,0,0,0a7,7,0,0,0,3.709.8c2.029,0,4.874-.368,6.49-1.606a4.341,4.341,0,0,0,2.781.8,8.846,8.846,0,0,0,6.49-3.212,13.591,13.591,0,0,0,3.709.8,5.281,5.281,0,0,0,2.781-.8,10.261,10.261,0,0,0,4.636-5.621,5.564,5.564,0,0,0,0-9.636,7.241,7.241,0,0,0,.927-6.424c-.666-2.165-1.509-3.952-3.709-4.818,1.273-4.056-1.339-9.672-5.563-11.243a3.806,3.806,0,0,0-.927-4.818c-1.215-1.073-3.066-2.409-4.636-2.409-.408,0-.526-.173-.927,0a7.61,7.61,0,0,0-4.636-3.212A3.61,3.61,0,0,0,436.836,107.078Z" transform="translate(-4.13 13.757)" fill="#5ad199" fill-rule="evenodd"/>
    <path id="Tracé_3735" data-name="Tracé 3735" d="M437.294,107.075c-.219,0-.7-.018-.927,0a7.159,7.159,0,0,1,2.781,6.424c.33-.152.6,0,.927,0,.6,0,1.312-.348,1.854,0,.838.514,1.942,1.462,1.854,2.409-1.793.052-4.172,1.59-4.636,3.212a4.5,4.5,0,0,1,2.781-.8c.168,0-.163-.018,0,0a4.119,4.119,0,0,1,2.781,1.606c-1.448.461-3.3,1.833-3.709,3.212.795-.468,1.8,0,2.781,0,1.341,0,2.741-.01,3.709.8-2.632.3-4.694,3.16-4.636,5.621a5.284,5.284,0,0,0-2.781-.8,14.01,14.01,0,0,0-2.781.8c-1.679.434-2.9.975-3.709,2.409.576-.477,1.147,0,1.854,0a6.645,6.645,0,0,1,.927,0,4.022,4.022,0,0,1,2.781,1.606h0c-2.071,0-4.9,1.39-5.563,3.212a7.152,7.152,0,0,1,2.781-.8,5.233,5.233,0,0,1,3.709,1.606,5.206,5.206,0,0,1,3.709-1.606c.1,0,.832,0,.927,0,1.3,0,1.892.724,2.781,1.606-2.605.189-4.292,1.85-5.563,4.015.707-.307,1.082,0,1.854,0a6.785,6.785,0,0,1,5.563,2.409,3.723,3.723,0,0,0-.927,0,5.991,5.991,0,0,0-4.636,2.409c-1.361-1.325-3.565-1.524-5.563-1.606-.075,0-.849,0-.927,0a6.473,6.473,0,0,0-4.636,1.606c-.5-.743-1.848-.8-2.781-.8-.258,0,.25-.036,0,0a11.136,11.136,0,0,0-3.709.8,5.055,5.055,0,0,1,.927,0,5.116,5.116,0,0,1,4.636,3.212,5.341,5.341,0,0,1,2.781-.8c.518,0,.529.724.927.8a3.761,3.761,0,0,1,2.781,1.606c-.1,0,.107,0,0,0-2.564,0-5.185,1.988-6.49,4.015a8.56,8.56,0,0,1,4.636-1.606h0a5.607,5.607,0,0,1,3.709,1.606c1.509-2.281,4.567-3.212,7.417-3.212.158,0-.158-.009,0,0-2.605,1.027-3.911,3-4.636,5.621a6.362,6.362,0,0,0,3.709-2.409,13.591,13.591,0,0,0,3.709.8,5.281,5.281,0,0,0,2.781-.8,10.261,10.261,0,0,0,4.636-5.621,5.564,5.564,0,0,0,0-9.636,7.241,7.241,0,0,0,.927-6.424c-.666-2.166-1.509-3.952-3.709-4.818,1.273-4.056-1.339-9.672-5.563-11.243a3.806,3.806,0,0,0-.927-4.818c-1.215-1.073-3.066-2.409-4.636-2.409-.408,0-.526-.173-.927,0a7.5,7.5,0,0,0-4.636-3.212A4.078,4.078,0,0,0,437.294,107.075Z" transform="translate(-4.588 13.76)" fill="#449e8b" fill-rule="evenodd"/>
    <path id="Tracé_3736" data-name="Tracé 3736" d="M487.007,228.86c-1.062,0-2.632-.07-3.709,0-21.5,1.434-38.249,17.64-39.867,37.743a39.944,39.944,0,0,0,12.98,32.925,33.84,33.84,0,0,1,11.126,24.894v17.667h38.94V324.422A33.383,33.383,0,0,1,517.6,299.528a40.463,40.463,0,0,0,12.98-29.712C530.583,247.161,511.247,228.86,487.007,228.86Z" transform="translate(-5.163 22.87)" fill="#ffd173" fill-rule="evenodd"/>
    <path id="Tracé_3737" data-name="Tracé 3737" d="M477.925,336.653V347.9a4.566,4.566,0,0,0,4.636,4.818h10.2c2.807,0,5.563-2.166,5.563-4.818V336.653Z" transform="translate(-6.279 30.715)" fill="#dfdfdf" fill-rule="evenodd"/>
    <path id="Tracé_3738" data-name="Tracé 3738" d="M477.925,336.653V347.9a4.566,4.566,0,0,0,4.636,4.818h10.2c2.807,0,5.563-2.166,5.563-4.818V336.653Z" transform="translate(-6.279 30.715)" fill="#053b5c" fill-rule="evenodd"/>
    <path id="Tracé_3739" data-name="Tracé 3739" d="M467.361,317.082v22.485c0,5.194,4.643,8.833,10.2,8.833h19.47c5.555,0,10.2-3.639,10.2-8.833V317.082Z" transform="translate(-5.914 29.407)" fill="#212121" fill-rule="evenodd"/>
    <path id="Tracé_3740" data-name="Tracé 3740" d="M510.731,320.869c-.121,0,.124-.011,0,0l-46.357,4.818c-2,.189-3.709,1.344-3.709,3.212,0,1.75,1.886,3.212,3.709,3.212.122,0-.124.014,0,0l46.357-4.818c1.968-.189,2.781-1.344,2.781-3.212C513.512,322.356,512.529,320.869,510.731,320.869Z" transform="translate(-5.708 29.636)" fill="#dfdfdf" fill-rule="evenodd"/>
    <path id="Tracé_3741" data-name="Tracé 3741" d="M510.731,332.139c-.121,0,.124-.011,0,0l-46.357,4.015a4.311,4.311,0,0,0-3.709,4.015c0,1.725,1.888,3.212,3.709,3.212.124,0-.124.014,0,0l46.357-4.818c1.968-.189,2.781-1.347,2.781-3.212C513.512,333.6,512.529,332.139,510.731,332.139Z" transform="translate(-5.708 30.411)" fill="#dfdfdf" fill-rule="evenodd"/>
    <path id="Tracé_3742" data-name="Tracé 3742" d="M510.731,320.869c-.121,0,.124-.011,0,0l-46.357,4.818c-2,.189-3.709,1.344-3.709,3.212,0,1.75,1.886,3.212,3.709,3.212.122,0-.124.014,0,0l46.357-4.818c1.968-.189,2.781-1.344,2.781-3.212C513.512,322.356,512.529,320.869,510.731,320.869Z" transform="translate(-5.708 29.636)" fill="#053b5c" fill-rule="evenodd"/>
    <path id="Tracé_3743" data-name="Tracé 3743" d="M510.731,332.139c-.121,0,.124-.011,0,0l-46.357,4.015a4.311,4.311,0,0,0-3.709,4.015c0,1.725,1.888,3.212,3.709,3.212.124,0-.124.014,0,0l46.357-4.818c1.968-.189,2.781-1.347,2.781-3.212C513.512,333.6,512.529,332.139,510.731,332.139Z" transform="translate(-5.708 30.411)" fill="#053b5c" fill-rule="evenodd"/>
    <path id="Tracé_3744" data-name="Tracé 3744" d="M467.312,315.576a1.623,1.623,0,1,0,0,3.212h40.794c.926,0,.927-.74.927-1.606s0-1.606-.927-1.606Z" transform="translate(-5.864 29.307)" fill="#dfdfdf" fill-rule="evenodd"/>
    <path id="Tracé_3745" data-name="Tracé 3745" d="M467.312,315.576a1.623,1.623,0,1,0,0,3.212h40.794c.926,0,.927-.74.927-1.606s0-1.606-.927-1.606Z" transform="translate(-5.864 29.307)" fill="#053b5c" fill-rule="evenodd"/>
    <path id="Tracé_3746" data-name="Tracé 3746" d="M472.321,235.6a41.306,41.306,0,0,0-19.47,17.667,36.939,36.939,0,0,0-3.709,24.894c.724-8.008,4.67-16.291,10.2-22.485a42.68,42.68,0,0,1,21.324-12.849C477.686,240.316,475.3,238.119,472.321,235.6Z" transform="translate(-5.311 23.354)" fill="#fff" fill-rule="evenodd"/>
    <path id="Tracé_3747" data-name="Tracé 3747" d="M441,174.338a564.223,564.223,0,0,0-100.132,8.833L420.6,230.551l38.013-55.41C452.8,174.962,446.823,174.338,441,174.338Z" transform="translate(-1.805 18.771)" fill="#a0ebff" fill-rule="evenodd"/>
    <path id="Tracé_3748" data-name="Tracé 3748" d="M715.372,293.236c-52.029,0-81.362,26.986-91.787,37.743L641.2,362.3a72.665,72.665,0,0,0,28.742,8.833c2.083.179,4.4.8,6.49.8a75.244,75.244,0,0,0,43.576-14.455l.927-1.606c11.6-18.776,12.91-41.553,2.781-61.031l-.927-1.606C720.432,293.129,717.644,293.236,715.372,293.236Z" transform="translate(-11.013 27.556)" fill="#a0ebff" fill-rule="evenodd"/>
    <path id="Tracé_3749" data-name="Tracé 3749" d="M719.922,350.576h0C719.974,350.5,719.874,350.653,719.922,350.576Zm5.563-40.152h0c-6.4,43.88-43.616,49.086-51.92,49.789-3.908.082-7.394.8-12.053.8h-84.37V324.879l-70.463,81.107,70.463,102.789V471.032h24.106c27.487,0,53.012-13.067,66.754-35.334l42.649-69.865,6.49-11.243h0l2.781-4.015h0c-.221.348-.667,1.272-.927,1.606A62.039,62.039,0,0,0,725.485,310.424Z" transform="translate(-7.219 28.838)" fill="#40b4e5" fill-rule="evenodd"/>
    <path id="Tracé_3750" data-name="Tracé 3750" d="M642.269,371.707c-5.623,0-10.814,4.209-13.907,8.833-3.529,5.274-4.726,10.839-8.344,16.061-3.1,4.479-8.422,8.833-13.907,8.833a12.878,12.878,0,0,1-2.781-.8c-9.346-2.327-11.978-14.564-21.324-16.864a12.669,12.669,0,0,0-2.781-.8c-4.773,0-9.665,3.009-12.98,6.424-3.993,4.058-6.9,9.008-11.126,12.849-3.115,2.833-6.922,4.818-11.126,4.818a12.182,12.182,0,0,1-4.636-.8c-4.2-1.813-7.482-5.856-12.053-6.424-.309-.036-.623-.8-.927-.8-3.657,0-7.055,2.8-9.271,5.621a35.1,35.1,0,0,0-2.781,4.818L538.429,448c6.858-.92,13.714-3.169,20.4-4.818,8.608-2.113,18-2.409,26.887-2.409a111.069,111.069,0,0,1,56.556,15.258,75.266,75.266,0,0,0,25.96-24.894l15.761-26.5h0c-2.867,0-5.5,1.957-8.344,2.409a13.287,13.287,0,0,1-1.854,0c-5.939,0-10.671-5.1-12.98-10.44-2.518-5.844-3.076-12.254-6.49-17.667-2-3.193-5.393-6.416-9.271-7.227A15.167,15.167,0,0,0,642.269,371.707Z" transform="translate(-7.446 33.404)" fill="#ffd173" fill-rule="evenodd"/>
    <path id="Tracé_3751" data-name="Tracé 3751" d="M635.1,377.706v53.8c1.39.055,3.216-.107,4.636,0v-53.8Z" transform="translate(-11.399 33.83)" fill="#fff" fill-rule="evenodd"/>
    <path id="Tracé_3752" data-name="Tracé 3752" d="M630.175,373.864a3.929,3.929,0,0,0-3.709,4.015c0,2.029,1.568,3.212,3.709,3.212h15.761v-7.227Z" transform="translate(-11.113 33.657)" fill="#fff" fill-rule="evenodd"/>
    <path id="Tracé_3753" data-name="Tracé 3753" d="M630.175,373.864a3.929,3.929,0,0,0-3.709,4.015c0,2.029,1.568,3.212,3.709,3.212h15.761v-7.227Z" transform="translate(-11.113 33.657)" fill="#053b5c" fill-rule="evenodd"/>
    <path id="Tracé_3754" data-name="Tracé 3754" d="M627.393,376.284c-.348.541-.927.931-.927,1.606,0,2.029,1.568,3.212,3.709,3.212h15.762V377.89H630.175A2.838,2.838,0,0,1,627.393,376.284Z" transform="translate(-11.113 33.646)" fill="#fff" fill-rule="evenodd"/>
    <path id="Tracé_3755" data-name="Tracé 3755" d="M646.553,356.088c-1.157,1.732-1.854,5.859-1.854,11.243,0,5.41.7,10.314,1.854,12.046,1.157-1.732,1.854-6.635,1.854-12.046C648.408,361.947,647.71,357.819,646.553,356.088Z" transform="translate(-11.73 32.16)" fill="#fff" fill-rule="evenodd"/>
    <path id="Tracé_3756" data-name="Tracé 3756" d="M646.553,356.088c-1.157,1.732-1.854,5.859-1.854,11.243,0,5.41.7,10.314,1.854,12.046Z" transform="translate(-11.73 32.16)" fill="#053b5c" fill-rule="evenodd"/>
    <path id="Tracé_3757" data-name="Tracé 3757" d="M646.608,377.706h0c1.013,1.813,4.266,4.521,9.271,7.227,4.887,2.641,9.817,4.015,12.053,4.015.053,0-.053,0,0,0-1.013-1.813-4.268-4.523-9.271-7.227C653.774,379.081,648.868,377.706,646.608,377.706Z" transform="translate(-11.785 33.829)" fill="#fff" fill-rule="evenodd"/>
    <path id="Tracé_3758" data-name="Tracé 3758" d="M646.608,377.706h0l21.324,11.243c-1.013-1.813-4.268-4.523-9.271-7.227C653.774,379.081,648.868,377.706,646.608,377.706Z" transform="translate(-11.785 33.829)" fill="#053b5c" fill-rule="evenodd"/>
    <path id="Tracé_3759" data-name="Tracé 3759" d="M645.836,377.706c-2.233,0-7.166,1.375-12.053,4.015-5,2.7-9.156,5.414-10.2,7.227.054,0,.871,0,.927,0,2.26,0,6.239-1.375,11.126-4.015,5.006-2.706,9.185-5.414,10.2-7.227Z" transform="translate(-11.013 33.829)" fill="#fff" fill-rule="evenodd"/>
    <path id="Tracé_3760" data-name="Tracé 3760" d="M645.836,377.706l-22.251,11.243c.054,0,.871,0,.927,0,2.26,0,6.239-1.375,11.126-4.015C640.643,382.227,644.823,379.519,645.836,377.706Z" transform="translate(-11.013 33.83)" fill="#053b5c" fill-rule="evenodd"/>
    <path id="Tracé_3761" data-name="Tracé 3761" d="M646.493,373.864a3.909,3.909,0,0,0-3.709,4.015c0,2.029,1.539,3.212,3.709,3.212s3.709-1.183,3.709-3.212A3.909,3.909,0,0,0,646.493,373.864Z" transform="translate(-11.67 33.657)" fill="#fff" fill-rule="evenodd"/>
    <path id="Tracé_3762" data-name="Tracé 3762" d="M660.013,395.481v36.94c.955.054,1.826.724,2.781.8V395.481Z" transform="translate(-12.209 35.328)" fill="#fff" fill-rule="evenodd"/>
    <path id="Tracé_3763" data-name="Tracé 3763" d="M657.048,393.272a2.619,2.619,0,0,0-2.781,2.409c0,1.407,1.3,3.212,2.781,3.212h10.2v-5.621Z" transform="translate(-12.026 35.127)" fill="#fff" fill-rule="evenodd"/>
    <path id="Tracé_3764" data-name="Tracé 3764" d="M657.048,393.272a2.619,2.619,0,0,0-2.781,2.409c0,1.407,1.3,3.212,2.781,3.212h10.2v-5.621Z" transform="translate(-12.026 35.127)" fill="#053b5c" fill-rule="evenodd"/>
    <path id="Tracé_3765" data-name="Tracé 3765" d="M654.259,394.872c-.231.352,0,.342,0,.8,0,1.407,1.3,3.212,2.781,3.212h10.2v-3.212h-10.2C656.056,395.675,654.723,395.6,654.259,394.872Z" transform="translate(-12.018 35.133)" fill="#fff" fill-rule="evenodd"/>
    <path id="Tracé_3766" data-name="Tracé 3766" d="M667.666,380.556c-.812,1.191-.927,4.324-.927,8.03,0,3.733.115,6.84.927,8.03a18.316,18.316,0,0,0,0-16.061Z" transform="translate(-12.445 34.192)" fill="#fff" fill-rule="evenodd"/>
    <path id="Tracé_3767" data-name="Tracé 3767" d="M667.666,380.556c-.812,1.191-.927,4.324-.927,8.03,0,3.733.115,6.84.927,8.03Z" transform="translate(-12.445 34.192)" fill="#053b5c" fill-rule="evenodd"/>
    <path id="Tracé_3768" data-name="Tracé 3768" d="M667.677,395.481c-.036,0,.034,0,0,0a17.881,17.881,0,0,0,6.49,5.621,19.65,19.65,0,0,0,8.344,2.409h0c-.693-1.245-3.046-2.953-6.49-4.818C672.66,396.868,669.225,395.481,667.677,395.481Z" transform="translate(-12.456 35.328)" fill="#fff" fill-rule="evenodd"/>
    <path id="Tracé_3769" data-name="Tracé 3769" d="M667.677,395.481c-.036,0,.034,0,0,0l14.834,8.03c-.693-1.245-3.047-2.953-6.49-4.818C672.66,396.868,669.225,395.481,667.677,395.481Z" transform="translate(-12.456 35.328)" fill="#053b5c" fill-rule="evenodd"/>
    <path id="Tracé_3770" data-name="Tracé 3770" d="M667.181,395.481c-1.546,0-4.981,1.387-8.344,3.212-3.414,1.866-5.8,3.573-6.49,4.818h0a19.659,19.659,0,0,0,8.344-2.409,17.642,17.642,0,0,0,6.49-5.621C667.145,395.479,667.217,395.481,667.181,395.481Z" transform="translate(-11.96 35.328)" fill="#fff" fill-rule="evenodd"/>
    <path id="Tracé_3771" data-name="Tracé 3771" d="M667.181,395.481l-14.834,8.03h0a19.658,19.658,0,0,0,8.344-2.409A17.642,17.642,0,0,0,667.181,395.481Z" transform="translate(-11.96 35.328)" fill="#053b5c" fill-rule="evenodd"/>
    <path id="Tracé_3772" data-name="Tracé 3772" d="M667.58,393.272a2.621,2.621,0,0,0-2.781,2.409c0,1.407,1.306,3.212,2.781,3.212,1.5,0,2.781-1.806,2.781-3.212A2.6,2.6,0,0,0,667.58,393.272Z" transform="translate(-12.359 35.127)" fill="#fff" fill-rule="evenodd"/>
    <path id="Tracé_3773" data-name="Tracé 3773" d="M569.91,376.876v16.061h11.126V376.876Z" transform="translate(-9.259 33.857)" fill="#db8e6a" fill-rule="evenodd"/>
    <path id="Tracé_3774" data-name="Tracé 3774" d="M569.91,376.876v16.061h11.126V376.876Z" transform="translate(-9.259 33.857)" fill="#053b5c" fill-rule="evenodd"/>
    <path id="Tracé_3775" data-name="Tracé 3775" d="M581.424,376.876v16.061h5.563V376.876Z" transform="translate(-9.646 33.857)" fill="#595959" fill-rule="evenodd"/>
    <path id="Tracé_3776" data-name="Tracé 3776" d="M619.3,395.548l-13.907,5.621h19.47Z" transform="translate(-10.438 35.26)" fill="#ffd173" fill-rule="evenodd"/>
    <path id="Tracé_3777" data-name="Tracé 3777" d="M619.3,395.548l-13.907,5.621h19.47Z" transform="translate(-10.438 35.26)" fill="#053b5c" fill-rule="evenodd"/>
    <path id="Tracé_3778" data-name="Tracé 3778" d="M585.8,391.9l-40.794,6.424v27.3H585.8Z" transform="translate(-8.461 34.891)" fill="#db8e6a" fill-rule="evenodd"/>
    <path id="Tracé_3779" data-name="Tracé 3779" d="M585.8,391.9l-40.794,6.424v27.3H585.8Z" transform="translate(-8.461 34.891)" fill="#053b5c" fill-rule="evenodd"/>
    <path id="Tracé_3780" data-name="Tracé 3780" d="M602.955,383.551,587.194,396.4v29.713h31.523V396.4Z" transform="translate(-9.853 34.409)" fill="#595959" fill-rule="evenodd"/>
    <path id="Tracé_3781" data-name="Tracé 3781" d="M561.486,382.994,538.307,400.66l.927,1.606H579.1L601.353,384.6l21.324,17.667.927-1.606-22.251-17.667Z" transform="translate(-8.251 34.163)" fill="#ffd173" fill-rule="evenodd"/>
    <path id="Tracé_3782" data-name="Tracé 3782" d="M568.952,376.242v2.409h18.543v-2.409Z" transform="translate(-9.227 33.688)" fill="#db8e6a" fill-rule="evenodd"/>
    <path id="Tracé_3783" data-name="Tracé 3783" d="M568.952,376.242v2.409h18.543v-2.409Z" transform="translate(-9.227 33.688)" fill="#595959" fill-rule="evenodd"/>
    <path id="Tracé_3784" data-name="Tracé 3784" d="M593.886,406.785v17.667h10.2V406.785Z" transform="translate(-10.056 36.069)" fill="#053b5c" fill-rule="evenodd"/>
    <path id="Tracé_3785" data-name="Tracé 3785" d="M582.265,88.419c-.435.489-.466,1.145-.927,1.606-2.664,2.406-3.621,5.775-1.854,8.833.143.243-.173.56,0,.8,2.163.988,4.97,2.409,7.417,2.409a9.014,9.014,0,0,0,.927,0c-.608-3.383-.808-7.463.927-10.44C586.818,90.495,584.318,89.421,582.265,88.419Z" transform="translate(-9.56 12.34)" fill="#fff" fill-rule="evenodd"/>
    <path id="Tracé_3786" data-name="Tracé 3786" d="M560.061,82.6a21.234,21.234,0,0,1-5.563,8.03c-2.663,2.406-3.621,5.775-1.854,8.833.143.243.784.56.927.8,2.19.988,4.041,2.409,6.49,2.409a9.012,9.012,0,0,0,.927,0c-.608-3.49-1.01-7.408.927-10.44,2.027-3.138,6.406-4.846,9.271-7.227A80.333,80.333,0,0,0,560.061,82.6Z" transform="translate(-8.681 11.736)" fill="#fff" fill-rule="evenodd"/>
    <path id="Tracé_3787" data-name="Tracé 3787" d="M533.234,80.97c-.058.161.058.612,0,.8a20.971,20.971,0,0,1-5.563,8.833c-2.632,2.406-3.589,5.775-1.854,8.833.146.243-.175.56,0,.8,2.163.988,4.985,2.409,7.417,2.409a9.012,9.012,0,0,0,.927,0c-.608-3.49-1.041-7.436.927-10.44,2.923-4.572,10.923-6.184,12.053-11.243-.493-.027-1.361,0-1.854,0Z" transform="translate(-7.813 11.759)" fill="#fff" fill-rule="evenodd"/>
    <path id="Tracé_3788" data-name="Tracé 3788" d="M524.8,97.523l-2.781,32.925h16.689L535,97.523Z" transform="translate(-7.728 12.872)" fill="#fff" fill-rule="evenodd"/>
    <path id="Tracé_3789" data-name="Tracé 3789" d="M551.582,97.523l-3.709,32.925h17.616l-3.709-32.925Z" transform="translate(-8.546 12.872)" fill="#fff" fill-rule="evenodd"/>
    <path id="Tracé_3790" data-name="Tracé 3790" d="M578.432,97.523l-3.709,32.925h16.689l-2.781-32.925Z" transform="translate(-9.436 12.872)" fill="#fff" fill-rule="evenodd"/>
    <path id="Tracé_3791" data-name="Tracé 3791" d="M508.573,115.494v32.925H600.36V115.494Z" transform="translate(-7.258 14.174)" fill="#fff" fill-rule="evenodd"/>
    <path id="Tracé_3792" data-name="Tracé 3792" d="M505.695,115.451v4.015h97.35v-4.015Z" transform="translate(-7.162 14.217)" fill="#dfdfdf" fill-rule="evenodd"/>
    <path id="Tracé_3793" data-name="Tracé 3793" d="M505.695,115.451v4.015h97.35v-4.015Z" transform="translate(-7.162 14.217)" fill="#053b5c" fill-rule="evenodd"/>
    <path id="Tracé_3794" data-name="Tracé 3794" d="M512.409,123.556v4.818h5.563v-4.818Z" transform="translate(-7.386 14.945)" fill="#053b5c" fill-rule="evenodd"/>
    <path id="Tracé_3795" data-name="Tracé 3795" d="M525.828,123.556v4.818h5.563v-4.818Z" transform="translate(-7.825 14.945)" fill="#053b5c" fill-rule="evenodd"/>
    <path id="Tracé_3796" data-name="Tracé 3796" d="M539.246,123.556v4.818h5.563v-4.818Z" transform="translate(-8.263 14.945)" fill="#053b5c" fill-rule="evenodd"/>
    <path id="Tracé_3797" data-name="Tracé 3797" d="M552.663,123.556v4.818h5.563v-4.818Z" transform="translate(-8.7 14.945)" fill-rule="evenodd"/>
    <path id="Tracé_3798" data-name="Tracé 3798" d="M566.082,123.556v4.818h5.563v-4.818Z" transform="translate(-9.139 14.945)" fill="#053b5c" fill-rule="evenodd"/>
    <path id="Tracé_3799" data-name="Tracé 3799" d="M579.5,123.556v4.818h5.563v-4.818Z" transform="translate(-9.577 14.945)" fill="#053b5c" fill-rule="evenodd"/>
    <path id="Tracé_3800" data-name="Tracé 3800" d="M592.917,123.556v4.818h5.563v-4.818Z" transform="translate(-10.014 14.945)" fill="#053b5c" fill-rule="evenodd"/>
    <path id="Tracé_3801" data-name="Tracé 3801" d="M570.255,133.38c-4.569,0-9.348-.2-13.907,0a193.6,193.6,0,0,0-25.96,2.409,130.992,130.992,0,0,0-35.232,11.243l16.689,26.5a43.4,43.4,0,0,0,11.126,4.818c12.267,3.436,26.153,2.915,38.94,3.212,11.171.266,22.213,1.606,33.377,1.606,5.81,0,10.924-.874,16.689-1.606,2.894-.352,6.377-.956,9.271-1.606l16.689-29.713c-13.426-6.708-27.779-12.633-42.649-15.258C586.929,133.509,578.763,133.38,570.255,133.38Z" transform="translate(-6.822 15.561)" fill="#5ad199" fill-rule="evenodd"/>
    <path id="Tracé_3802" data-name="Tracé 3802" d="M503.215,158.695,519.9,186l-33.377,17.667,111.258,16.864,33.377-61.834Z" transform="translate(-6.536 17.55)" fill="#40b4e5" fill-rule="evenodd"/>
    <path id="Tracé_3803" data-name="Tracé 3803" d="M360.981,374.659V417.22c3.038-.486,6.2-.426,9.271-.8V374.659Z" transform="translate(-2.447 33.665)" fill="#40b4e5" fill-rule="evenodd"/>
    <path id="Tracé_3804" data-name="Tracé 3804" d="M360.981,374.659V417.22c3.038-.486,6.2-.426,9.271-.8V374.659Z" transform="translate(-2.447 33.665)" fill="#053b5c" fill-rule="evenodd"/>
    <path id="Tracé_3805" data-name="Tracé 3805" d="M315.965,352.323l7.417,20.879,1.854,3.212,8.344,20.879h70.463L395.7,376.414l-1.854-3.212-7.417-20.879Z" transform="translate(-1.007 31.909)" fill="#053b5c" fill-rule="evenodd"/>
    <path id="Tracé_3806" data-name="Tracé 3806" d="M365.776,355.352l7.417,17.667h19.47l-7.417-17.667Z" transform="translate(-2.606 32.093)" fill="#40b4e5" fill-rule="evenodd"/>
    <path id="Tracé_3807" data-name="Tracé 3807" d="M342.77,355.352l7.417,17.667h19.47l-7.417-17.667Z" transform="translate(-1.852 32.093)" fill="#40b4e5" fill-rule="evenodd"/>
    <path id="Tracé_3808" data-name="Tracé 3808" d="M319.764,355.352l7.417,17.667h19.47l-6.49-17.667Z" transform="translate(-1.098 32.093)" fill="#40b4e5" fill-rule="evenodd"/>
    <path id="Tracé_3809" data-name="Tracé 3809" d="M374.406,374.7l7.417,18.47h19.47l-7.417-18.47Z" transform="translate(-2.892 33.622)" fill="#40b4e5" fill-rule="evenodd"/>
    <path id="Tracé_3810" data-name="Tracé 3810" d="M351.4,374.7l7.417,18.47h19.47l-7.417-18.47Z" transform="translate(-2.139 33.622)" fill="#40b4e5" fill-rule="evenodd"/>
    <path id="Tracé_3811" data-name="Tracé 3811" d="M328.4,374.7l7.417,18.47h19.47l-7.417-18.47Z" transform="translate(-1.384 33.622)" fill="#40b4e5" fill-rule="evenodd"/>
    <path id="Tracé_3812" data-name="Tracé 3812" d="M404.123,347.051v77.895c2.258-.379,4.232-.533,6.49-.8V347.051Z" transform="translate(-3.868 31.559)" fill="#40b4e5" fill-rule="evenodd"/>
    <path id="Tracé_3813" data-name="Tracé 3813" d="M404.123,347.051v77.895c2.258-.379,4.232-.533,6.49-.8V347.051Z" transform="translate(-3.868 31.559)" fill="#053b5c" fill-rule="evenodd"/>
    <path id="Tracé_3814" data-name="Tracé 3814" d="M370.582,330.68l5.563,15.258.927,2.409,6.49,15.258h51.92l-6.49-15.258-.927-2.409L422.5,330.68Z" transform="translate(-2.777 30.264)" fill="#053b5c" fill-rule="evenodd"/>
    <path id="Tracé_3815" data-name="Tracé 3815" d="M407.971,331.973l4.636,13.652h14.834l-5.563-13.652Z" transform="translate(-4.007 30.577)" fill="#40b4e5" fill-rule="evenodd"/>
    <path id="Tracé_3816" data-name="Tracé 3816" d="M390.7,331.973l5.563,13.652h13.907l-4.636-13.652Z" transform="translate(-3.428 30.577)" fill="#40b4e5" fill-rule="evenodd"/>
    <path id="Tracé_3817" data-name="Tracé 3817" d="M373.434,331.973,379,345.624h14.834l-5.563-13.652Z" transform="translate(-2.847 30.577)" fill="#40b4e5" fill-rule="evenodd"/>
    <path id="Tracé_3818" data-name="Tracé 3818" d="M413.7,347.085l5.563,12.849H433.17l-4.636-12.849Z" transform="translate(-4.173 31.526)" fill="#40b4e5" fill-rule="evenodd"/>
    <path id="Tracé_3819" data-name="Tracé 3819" d="M397.432,347.085l4.636,12.849H416.9l-5.563-12.849Z" transform="translate(-3.667 31.526)" fill="#40b4e5" fill-rule="evenodd"/>
    <path id="Tracé_3820" data-name="Tracé 3820" d="M380.163,347.085l5.563,12.849h13.907l-5.563-12.849Z" transform="translate(-3.086 31.526)" fill="#40b4e5" fill-rule="evenodd"/>
    <path id="Tracé_3821" data-name="Tracé 3821" d="M397.854,403.795c-7.081,0-13.345.333-20.4.8-27.227,1.813-54.159,6.625-80.662,12.849,11.6,18.694,31.642,30.606,54.7,32.122l95.5,6.424,1.854-47.379A264.62,264.62,0,0,0,397.854,403.795Z" transform="translate(-0.38 35.847)" fill="#a0ebff" fill-rule="evenodd"/>
    <path id="Tracé_3822" data-name="Tracé 3822" d="M351.779,233.345l-130.728,6.424,35.232,18.47L244.23,277.512a68.5,68.5,0,0,0,0,72.274l42.649,69.062L294.3,430.09l1.854,4.015c-.26-.434.233-1.145,0-1.606h0A70.075,70.075,0,0,0,331.382,459c-37.468-27.109-24.824-59.563-21.324-66.652,1.91-3.22,4.145-6.652,6.49-10.44l41.722-68.258,33.377,17.667Z" transform="translate(2.119 23.204)" fill="#40b4e5" fill-rule="evenodd"/>
    <path id="Tracé_3823" data-name="Tracé 3823" d="M282.95,272.231c-5.643,0-10.405,3.27-12.053,8.03-.2-.027-.725,0-.927,0a8.323,8.323,0,0,0-8.344,8.03v.8H245.864c-2.141,0-3.709,1.238-3.709,3.212a3.947,3.947,0,0,0,3.709,4.015h48.212a6.7,6.7,0,0,0,6.49-6.424c0-2.977-2.467-5.215-5.563-5.621h0A11.915,11.915,0,0,0,282.95,272.231Z" transform="translate(1.412 26.076)" fill="#fff" fill-rule="evenodd"/>
    <path id="Tracé_3824" data-name="Tracé 3824" d="M326.873,243.2c-7,0-12.98,5.5-12.98,12.046h0c-3.067.407-4.636,2.617-4.636,5.621a5.277,5.277,0,0,0,5.563,5.621h49.139c2.112,0,3.709-1.21,3.709-3.212a3.987,3.987,0,0,0-3.709-4.015H348.2c.029-.189,0,.191,0,0a8.321,8.321,0,0,0-8.344-8.03c-.2,0-.723-.027-.927,0A12.49,12.49,0,0,0,326.873,243.2Z" transform="translate(-0.789 23.786)" fill="#fff" fill-rule="evenodd"/>
    <path id="Tracé_3825" data-name="Tracé 3825" d="M247.845,297.724l-1.854,2.409a2.289,2.289,0,0,0,1.854,3.212c1.477,0,1.68-2.022.927-3.212Z" transform="translate(1.286 27.886)" fill="#fff" fill-rule="evenodd"/>
    <path id="Tracé_3826" data-name="Tracé 3826" d="M247.845,308.208l-1.854,2.409a2.289,2.289,0,0,0,1.854,3.212c1.477,0,1.68-2.022.927-3.212Z" transform="translate(1.286 28.645)" fill="#fff" fill-rule="evenodd"/>
    <path id="Tracé_3827" data-name="Tracé 3827" d="M247.845,318.7l-1.854,2.409c-.724,1.191.35,2.409,1.854,2.409,1.477,0,1.68-1.218.927-2.409Z" transform="translate(1.286 29.396)" fill="#fff" fill-rule="evenodd"/>
    <path id="Tracé_3828" data-name="Tracé 3828" d="M247.845,329.182l-1.854,2.409c-.724,1.191.35,2.409,1.854,2.409,1.477,0,1.68-1.218.927-2.409Z" transform="translate(1.286 30.156)" fill="#fff" fill-rule="evenodd"/>
    <path id="Tracé_3829" data-name="Tracé 3829" d="M247.845,339.666l-1.854,2.409c-.724,1.218.35,2.409,1.854,2.409,1.477,0,1.68-1.191.927-2.409Z" transform="translate(1.286 30.915)" fill="#fff" fill-rule="evenodd"/>
    <path id="Tracé_3830" data-name="Tracé 3830" d="M247.845,349.149l-1.854,3.212c-.724,1.191.35,2.409,1.854,2.409,1.477,0,1.68-1.218.927-2.409Z" transform="translate(1.286 31.871)" fill="#fff" fill-rule="evenodd"/>
    <path id="Tracé_3831" data-name="Tracé 3831" d="M257.45,302.97l-.927,2.409c-.751,1.191-.548,3.212.927,3.212a2.29,2.29,0,0,0,1.854-3.212Z" transform="translate(0.952 28.262)" fill="#fff" fill-rule="evenodd"/>
    <path id="Tracé_3832" data-name="Tracé 3832" d="M257.45,313.453l-.927,2.409c-.751,1.216-.548,2.409.927,2.409s2.605-1.193,1.854-2.409Z" transform="translate(0.952 29.021)" fill="#fff" fill-rule="evenodd"/>
    <path id="Tracé_3833" data-name="Tracé 3833" d="M257.45,323.937l-.927,2.409c-.751,1.191-.548,2.409.927,2.409s2.605-1.218,1.854-2.409Z" transform="translate(0.952 29.78)" fill="#fff" fill-rule="evenodd"/>
    <path id="Tracé_3834" data-name="Tracé 3834" d="M257.45,334.42l-.927,2.409c-.751,1.191-.548,2.409.927,2.409s2.605-1.218,1.854-2.409Z" transform="translate(0.952 30.539)" fill="#fff" fill-rule="evenodd"/>
    <path id="Tracé_3835" data-name="Tracé 3835" d="M257.45,343.911l-.927,3.212c-.751,1.191-.548,2.409.927,2.409s2.605-1.218,1.854-2.409Z" transform="translate(0.952 31.487)" fill="#fff" fill-rule="evenodd"/>
    <path id="Tracé_3836" data-name="Tracé 3836" d="M267.94,297.724l-1.854,2.409a2.141,2.141,0,1,0,3.709,0Z" transform="translate(0.661 27.886)" fill="#fff" fill-rule="evenodd"/>
    <path id="Tracé_3837" data-name="Tracé 3837" d="M267.94,308.208l-1.854,2.409a2.141,2.141,0,1,0,3.709,0Z" transform="translate(0.661 28.645)" fill="#fff" fill-rule="evenodd"/>
    <path id="Tracé_3838" data-name="Tracé 3838" d="M267.94,318.7l-1.854,2.409c-.753,1.191.379,2.409,1.854,2.409,1.5,0,2.576-1.218,1.854-2.409Z" transform="translate(0.661 29.396)" fill="#fff" fill-rule="evenodd"/>
    <path id="Tracé_3839" data-name="Tracé 3839" d="M267.94,329.182l-1.854,2.409c-.753,1.191.379,2.409,1.854,2.409,1.5,0,2.576-1.218,1.854-2.409Z" transform="translate(0.661 30.156)" fill="#fff" fill-rule="evenodd"/>
    <path id="Tracé_3840" data-name="Tracé 3840" d="M267.94,339.666l-1.854,2.409c-.753,1.218.379,2.409,1.854,2.409,1.5,0,2.576-1.191,1.854-2.409Z" transform="translate(0.661 30.915)" fill="#fff" fill-rule="evenodd"/>
    <path id="Tracé_3841" data-name="Tracé 3841" d="M267.94,349.149l-1.854,3.212c-.753,1.191.379,2.409,1.854,2.409,1.5,0,2.576-1.218,1.854-2.409Z" transform="translate(0.661 31.871)" fill="#fff" fill-rule="evenodd"/>
    <path id="Tracé_3842" data-name="Tracé 3842" d="M278.489,302.97l-1.854,2.409a2.141,2.141,0,1,0,3.709,0Z" transform="translate(0.311 28.262)" fill="#fff" fill-rule="evenodd"/>
    <path id="Tracé_3843" data-name="Tracé 3843" d="M278.489,313.453l-1.854,2.409c-.724,1.216.377,2.409,1.854,2.409s2.608-1.193,1.854-2.409Z" transform="translate(0.311 29.021)" fill="#fff" fill-rule="evenodd"/>
    <path id="Tracé_3844" data-name="Tracé 3844" d="M278.489,323.937l-1.854,2.409c-.724,1.191.377,2.409,1.854,2.409s2.608-1.218,1.854-2.409Z" transform="translate(0.311 29.78)" fill="#fff" fill-rule="evenodd"/>
    <path id="Tracé_3845" data-name="Tracé 3845" d="M278.489,334.42l-1.854,2.409c-.724,1.191.377,2.409,1.854,2.409s2.608-1.218,1.854-2.409Z" transform="translate(0.311 30.539)" fill="#fff" fill-rule="evenodd"/>
    <path id="Tracé_3846" data-name="Tracé 3846" d="M278.489,343.911l-1.854,3.212c-.724,1.191.377,2.409,1.854,2.409s2.608-1.218,1.854-2.409Z" transform="translate(0.311 31.487)" fill="#fff" fill-rule="evenodd"/>
    <path id="Tracé_3847" data-name="Tracé 3847" d="M289.035,297.724l-1.854,2.409a2.141,2.141,0,1,0,3.709,0Z" transform="translate(-0.037 27.886)" fill="#fff" fill-rule="evenodd"/>
    <path id="Tracé_3848" data-name="Tracé 3848" d="M289.035,308.208l-1.854,2.409a2.141,2.141,0,1,0,3.709,0Z" transform="translate(-0.037 28.645)" fill="#fff" fill-rule="evenodd"/>
    <path id="Tracé_3849" data-name="Tracé 3849" d="M289.035,318.7l-1.854,2.409c-.751,1.191.379,2.409,1.854,2.409s2.579-1.218,1.854-2.409Z" transform="translate(-0.037 29.396)" fill="#fff" fill-rule="evenodd"/>
    <path id="Tracé_3850" data-name="Tracé 3850" d="M289.035,329.182l-1.854,2.409c-.751,1.191.379,2.409,1.854,2.409s2.579-1.218,1.854-2.409Z" transform="translate(-0.037 30.156)" fill="#fff" fill-rule="evenodd"/>
    <path id="Tracé_3851" data-name="Tracé 3851" d="M289.035,339.666l-1.854,2.409c-.751,1.218.379,2.409,1.854,2.409s2.579-1.191,1.854-2.409Z" transform="translate(-0.037 30.915)" fill="#fff" fill-rule="evenodd"/>
    <path id="Tracé_3852" data-name="Tracé 3852" d="M289.035,349.149l-1.854,3.212c-.751,1.191.379,2.409,1.854,2.409s2.579-1.218,1.854-2.409Z" transform="translate(-0.037 31.871)" fill="#fff" fill-rule="evenodd"/>
    <path id="Tracé_3853" data-name="Tracé 3853" d="M299.584,302.97l-1.854,2.409a2.141,2.141,0,1,0,3.709,0Z" transform="translate(-0.387 28.262)" fill="#fff" fill-rule="evenodd"/>
    <path id="Tracé_3854" data-name="Tracé 3854" d="M299.584,313.453l-1.854,2.409c-.724,1.216.379,2.409,1.854,2.409s2.605-1.193,1.854-2.409Z" transform="translate(-0.387 29.021)" fill="#fff" fill-rule="evenodd"/>
    <path id="Tracé_3855" data-name="Tracé 3855" d="M299.584,323.937l-1.854,2.409c-.724,1.191.379,2.409,1.854,2.409s2.605-1.218,1.854-2.409Z" transform="translate(-0.387 29.78)" fill="#fff" fill-rule="evenodd"/>
    <path id="Tracé_3856" data-name="Tracé 3856" d="M299.584,334.42l-1.854,2.409c-.724,1.191.379,2.409,1.854,2.409s2.605-1.218,1.854-2.409Z" transform="translate(-0.387 30.539)" fill="#fff" fill-rule="evenodd"/>
    <path id="Tracé_3857" data-name="Tracé 3857" d="M299.584,343.911l-1.854,3.212c-.724,1.191.379,2.409,1.854,2.409s2.605-1.218,1.854-2.409Z" transform="translate(-0.387 31.487)" fill="#fff" fill-rule="evenodd"/>
    <path id="Tracé_3858" data-name="Tracé 3858" d="M312.993,266.943l-1.854,3.212c-.724,1.191.348,2.409,1.854,2.409,1.475,0,2.608-1.218,1.854-2.409Z" transform="translate(-0.817 25.743)" fill="#fff" fill-rule="evenodd"/>
    <path id="Tracé_3859" data-name="Tracé 3859" d="M312.993,277.426l-1.854,3.212c-.724,1.218.348,2.409,1.854,2.409,1.475,0,2.608-1.191,1.854-2.409Z" transform="translate(-0.817 26.503)" fill="#fff" fill-rule="evenodd"/>
    <path id="Tracé_3860" data-name="Tracé 3860" d="M312.993,287.909l-1.854,3.212c-.724,1.191.348,2.409,1.854,2.409,1.475,0,2.608-1.218,1.854-2.409Z" transform="translate(-0.817 27.262)" fill="#fff" fill-rule="evenodd"/>
    <path id="Tracé_3861" data-name="Tracé 3861" d="M312.993,298.4l-1.854,3.212c-.724,1.191.348,2.409,1.854,2.409,1.475,0,2.608-1.218,1.854-2.409Z" transform="translate(-0.817 28.012)" fill="#fff" fill-rule="evenodd"/>
    <path id="Tracé_3862" data-name="Tracé 3862" d="M312.993,308.884l-1.854,2.409a2.141,2.141,0,1,0,3.709,0Z" transform="translate(-0.817 28.772)" fill="#fff" fill-rule="evenodd"/>
    <path id="Tracé_3863" data-name="Tracé 3863" d="M312.993,319.367l-1.854,2.409a2.141,2.141,0,1,0,3.709,0Z" transform="translate(-0.817 29.531)" fill="#fff" fill-rule="evenodd"/>
    <path id="Tracé_3864" data-name="Tracé 3864" d="M323.54,272.189l-1.854,3.212c-.751,1.191.379,2.409,1.854,2.409s2.605-1.218,1.854-2.409Z" transform="translate(-1.165 26.118)" fill="#fff" fill-rule="evenodd"/>
    <path id="Tracé_3865" data-name="Tracé 3865" d="M323.54,282.672l-1.854,3.212c-.751,1.191.379,2.409,1.854,2.409s2.605-1.218,1.854-2.409Z" transform="translate(-1.165 26.878)" fill="#fff" fill-rule="evenodd"/>
    <path id="Tracé_3866" data-name="Tracé 3866" d="M323.54,293.155l-1.854,3.212c-.751,1.191.379,2.409,1.854,2.409s2.605-1.218,1.854-2.409Z" transform="translate(-1.165 27.637)" fill="#fff" fill-rule="evenodd"/>
    <path id="Tracé_3867" data-name="Tracé 3867" d="M323.54,303.638l-1.854,3.212c-.751,1.216.379,2.409,1.854,2.409s2.605-1.193,1.854-2.409Z" transform="translate(-1.165 28.397)" fill="#fff" fill-rule="evenodd"/>
    <path id="Tracé_3868" data-name="Tracé 3868" d="M323.54,314.121l-1.854,2.409a2.141,2.141,0,1,0,3.709,0Z" transform="translate(-1.165 29.156)" fill="#fff" fill-rule="evenodd"/>
    <path id="Tracé_3869" data-name="Tracé 3869" d="M334.088,266.943l-1.854,3.212c-.753,1.191.379,2.409,1.854,2.409s2.576-1.218,1.854-2.409Z" transform="translate(-1.515 25.743)" fill="#fff" fill-rule="evenodd"/>
    <path id="Tracé_3870" data-name="Tracé 3870" d="M334.088,277.426l-1.854,3.212c-.753,1.218.379,2.409,1.854,2.409s2.576-1.191,1.854-2.409Z" transform="translate(-1.515 26.503)" fill="#fff" fill-rule="evenodd"/>
    <path id="Tracé_3871" data-name="Tracé 3871" d="M334.088,287.909l-1.854,3.212c-.753,1.191.379,2.409,1.854,2.409s2.576-1.218,1.854-2.409Z" transform="translate(-1.515 27.262)" fill="#fff" fill-rule="evenodd"/>
    <path id="Tracé_3872" data-name="Tracé 3872" d="M334.088,298.4l-1.854,3.212c-.753,1.191.379,2.409,1.854,2.409s2.576-1.218,1.854-2.409Z" transform="translate(-1.515 28.012)" fill="#fff" fill-rule="evenodd"/>
    <path id="Tracé_3873" data-name="Tracé 3873" d="M334.088,308.884l-1.854,2.409a2.141,2.141,0,1,0,3.709,0Z" transform="translate(-1.515 28.772)" fill="#fff" fill-rule="evenodd"/>
    <path id="Tracé_3874" data-name="Tracé 3874" d="M334.088,319.367l-1.854,2.409a2.141,2.141,0,1,0,3.709,0Z" transform="translate(-1.515 29.531)" fill="#fff" fill-rule="evenodd"/>
    <path id="Tracé_3875" data-name="Tracé 3875" d="M344.637,272.189l-1.854,3.212c-.724,1.191.377,2.409,1.854,2.409s1.681-1.218.927-2.409Z" transform="translate(-1.865 26.118)" fill="#fff" fill-rule="evenodd"/>
    <path id="Tracé_3876" data-name="Tracé 3876" d="M344.637,282.672l-1.854,3.212c-.724,1.191.377,2.409,1.854,2.409s1.681-1.218.927-2.409Z" transform="translate(-1.865 26.878)" fill="#fff" fill-rule="evenodd"/>
    <path id="Tracé_3877" data-name="Tracé 3877" d="M344.637,293.155l-1.854,3.212c-.724,1.191.377,2.409,1.854,2.409s1.681-1.218.927-2.409Z" transform="translate(-1.865 27.637)" fill="#fff" fill-rule="evenodd"/>
    <path id="Tracé_3878" data-name="Tracé 3878" d="M344.637,303.638l-1.854,3.212c-.724,1.216.377,2.409,1.854,2.409s1.681-1.193.927-2.409Z" transform="translate(-1.865 28.397)" fill="#fff" fill-rule="evenodd"/>
    <path id="Tracé_3879" data-name="Tracé 3879" d="M344.637,314.121l-1.854,2.409a2.3,2.3,0,0,0,1.854,3.212c1.475,0,1.681-2.021.927-3.212Z" transform="translate(-1.865 29.156)" fill="#fff" fill-rule="evenodd"/>
    <path id="Tracé_3880" data-name="Tracé 3880" d="M355.184,266.943l-1.854,3.212c-.751,1.191.379,2.409,1.854,2.409s1.651-1.218.927-2.409Z" transform="translate(-2.213 25.743)" fill="#fff" fill-rule="evenodd"/>
    <path id="Tracé_3881" data-name="Tracé 3881" d="M355.184,277.426l-1.854,3.212c-.751,1.218.379,2.409,1.854,2.409s1.651-1.191.927-2.409Z" transform="translate(-2.213 26.503)" fill="#fff" fill-rule="evenodd"/>
    <path id="Tracé_3882" data-name="Tracé 3882" d="M355.184,287.909l-1.854,3.212c-.751,1.191.379,2.409,1.854,2.409s1.651-1.218.927-2.409Z" transform="translate(-2.213 27.262)" fill="#fff" fill-rule="evenodd"/>
    <path id="Tracé_3883" data-name="Tracé 3883" d="M355.184,298.4l-1.854,3.212c-.751,1.191.379,2.409,1.854,2.409s1.651-1.218.927-2.409Z" transform="translate(-2.213 28.012)" fill="#fff" fill-rule="evenodd"/>
    <path id="Tracé_3884" data-name="Tracé 3884" d="M355.184,308.884l-1.854,2.409a2.29,2.29,0,0,0,1.854,3.212c1.475,0,1.651-2.022.927-3.212Z" transform="translate(-2.213 28.772)" fill="#fff" fill-rule="evenodd"/>
    <path id="Tracé_3885" data-name="Tracé 3885" d="M355.184,319.367l-1.854,2.409a2.291,2.291,0,0,0,1.854,3.212c1.475,0,1.651-2.024.927-3.212Z" transform="translate(-2.213 29.531)" fill="#fff" fill-rule="evenodd"/>
    <path id="Tracé_3886" data-name="Tracé 3886" d="M364.79,272.189l-.927,3.212c-.724,1.191-.548,2.409.927,2.409s2.605-1.218,1.854-2.409Z" transform="translate(-2.548 26.118)" fill="#fff" fill-rule="evenodd"/>
    <path id="Tracé_3887" data-name="Tracé 3887" d="M364.79,282.672l-.927,3.212c-.724,1.191-.548,2.409.927,2.409s2.605-1.218,1.854-2.409Z" transform="translate(-2.548 26.878)" fill="#fff" fill-rule="evenodd"/>
    <path id="Tracé_3888" data-name="Tracé 3888" d="M364.79,293.155l-.927,3.212c-.724,1.191-.548,2.409.927,2.409s2.605-1.218,1.854-2.409Z" transform="translate(-2.548 27.637)" fill="#fff" fill-rule="evenodd"/>
    <path id="Tracé_3889" data-name="Tracé 3889" d="M364.79,303.638l-.927,3.212c-.724,1.216-.548,2.409.927,2.409s2.605-1.193,1.854-2.409Z" transform="translate(-2.548 28.397)" fill="#fff" fill-rule="evenodd"/>
    <path id="Tracé_3890" data-name="Tracé 3890" d="M364.79,314.121l-.927,2.409c-.724,1.191-.548,3.212.927,3.212a2.29,2.29,0,0,0,1.854-3.212Z" transform="translate(-2.548 29.156)" fill="#fff" fill-rule="evenodd"/>
    <path id="Tracé_3891" data-name="Tracé 3891" d="M596.346,418.133c-23.621,0-46.734,2.261-69.536,8.03L577.8,500.846V463.1h24.106c27.487,0,53.012-13.067,66.755-35.334v-.8A291.673,291.673,0,0,0,596.346,418.133Z" transform="translate(-7.88 36.767)" fill="#5ad199" fill-rule="evenodd"/>
    <g transform="matrix(1, 0, 0, 1, 0, 0)" filter="url(#Tracé_3892)">
      <path id="Tracé_3892-2" data-name="Tracé 3892" d="M-.339.4h929v579.8h-929Z" transform="translate(9.34 5.6)" fill="none"/>
    </g>
  </svg>
