<svg xmlns="http://www.w3.org/2000/svg" width="987.864" height="1520.962" viewBox="0 0 987.864 1520.962">
  <path id="Tracé_4295" data-name="Tracé 4295" d="M807.3,92.451c-40.517,0-81.059,28.23-115.705,84.8-31.191,50.98-37.546,78.532-89.024,124.4-58.711,52.322-138.7,64.888-166.3,224.823-20.438,118.469-11.942,320.587,27.9,479.8,36.17,144.588,86.614,155.179,125.462,191.174,54.082,50.076,90.516,143.774,146.244,204.629,48.772,53.151,115.127,91.979,178.869,91.979,49.157,0,96.762-23.089,133.559-80.492,118.38-184.525,52.854-438.7,14.771-658.587-47.534-274.19-63.761-384.042-96.6-481.509C925.841,152.916,866.6,92.453,807.3,92.453Z" transform="translate(-435.438 160.921) rotate(-13)" fill="#a0ebff" fill-rule="evenodd"/>
</svg>
