<svg xmlns="http://www.w3.org/2000/svg" width="1500.813" height="1689.143" viewBox="0 0 1500.813 1689.143">
    <path id="Tracé_4299" data-name="Tracé 4299" d="M1255.574,92.451c-88.094,0-176.243,34.021-251.575,102.2-67.817,61.438-81.635,94.642-193.563,149.921-127.653,63.056-301.576,78.2-361.574,270.945-44.438,142.772-25.965,386.354,60.661,578.228C588.168,1368,697.845,1380.76,782.311,1424.138c117.589,60.348,196.806,173.268,317.973,246.607,106.042,64.055,250.316,110.849,388.909,110.849,106.881,0,210.386-27.826,290.393-97,257.389-222.379,114.919-528.7,32.116-793.693-103.351-330.439-138.634-462.826-210.037-580.289C1513.32,165.32,1384.506,92.453,1255.574,92.453Z" transform="translate(-425.547 -92.451)" fill="#a0ebff" fill-rule="evenodd" opacity="0.51"/>
  </svg>
