<svg xmlns="http://www.w3.org/2000/svg" width="1932.835" height="1226.17" viewBox="0 0 1932.835 1226.17">
  <path id="Tracé_4292" data-name="Tracé 4292" d="M1494.5,92.451c-113.452,0-226.977,24.7-323.992,74.189-87.339,44.6-105.135,68.7-249.281,108.83-164.4,45.773-388.387,56.766-465.656,196.682-57.23,103.64-33.44,280.459,78.122,419.743,101.282,126.49,242.531,135.755,351.311,167.244,151.438,43.807,253.458,125.778,409.5,179.016,136.568,46.5,322.372,80.466,500.859,80.466,137.647,0,270.948-20.2,373.985-70.417,331.481-161.428,148-383.79,41.361-576.152-133.1-239.87-178.541-335.971-270.5-421.239C1826.444,145.348,1660.55,92.453,1494.5,92.453Z" transform="translate(-425.547 -92.451)" fill="#a0ebff" fill-rule="evenodd" opacity="0.51"/>
</svg>
